<?xml version="1.0" encoding="UTF-8"?>
<svg id="Layer_1" data-name="Layer 1" xmlns="http://www.w3.org/2000/svg" xmlns:xlink="http://www.w3.org/1999/xlink" viewBox="0 0 17 16">
  <defs>
    <style>
      .cls-1 {
        fill: none;
      }

      .cls-2 {
        clip-path: url(#clippath);
      }
    </style>
    <clipPath id="clippath">
      <rect class="cls-1" x=".5" y="0" width="16" height="16"/>
    </clipPath>
  </defs>
  <g class="cls-2">
    <g>
      <path d="M8.5,3.89c-.54,0-1.07,.11-1.57,.31-.5,.21-.95,.51-1.33,.89-.38,.38-.68,.83-.89,1.33-.21,.5-.31,1.03-.31,1.57,0,.54,.11,1.07,.31,1.57,.21,.5,.51,.95,.89,1.33,.38,.38,.83,.68,1.33,.89,.5,.21,1.03,.31,1.57,.31,.54,0,1.07-.11,1.57-.31,.5-.21,.95-.51,1.33-.89s.68-.83,.89-1.33c.21-.5,.31-1.03,.31-1.57,0-.54-.11-1.07-.31-1.57-.21-.5-.51-.95-.89-1.33-.38-.38-.83-.68-1.33-.89-.5-.21-1.03-.31-1.57-.31Zm0,6.77c-.53,0-1.04-.16-1.48-.45-.44-.29-.78-.71-.98-1.2-.2-.49-.25-1.02-.15-1.54,.1-.52,.36-.99,.73-1.36,.37-.37,.85-.63,1.36-.73,.52-.1,1.05-.05,1.54,.15,.49,.2,.9,.54,1.2,.98,.29,.44,.45,.95,.45,1.48,0,.35-.07,.7-.2,1.02-.13,.32-.33,.62-.58,.86-.25,.25-.54,.44-.86,.58-.32,.13-.67,.2-1.02,.2Z"/>
      <path d="M11.8,.05C10.33-.02,6.68-.02,5.21,.05c-1.29,.06-2.44,.37-3.36,1.29C.31,2.88,.51,4.96,.51,8s-.17,5.14,1.34,6.65c1.54,1.54,3.65,1.34,6.65,1.34s4.15,0,5.24-.42c1.48-.58,2.6-1.9,2.71-4.28,.07-1.47,.07-5.12,0-6.59C16.32,1.89,14.81,.19,11.8,.05Zm2.33,13.58c-1.01,1.01-2.41,.92-5.65,.92s-4.67,.05-5.65-.93c-1.12-1.12-.92-2.91-.92-5.64,0-3.68-.38-6.34,3.32-6.53,.85-.03,1.1-.04,3.24-.04l.03,.02c3.55,0,6.34-.37,6.51,3.32,.04,.84,.05,1.1,.05,3.23,0,3.29,.06,4.64-.93,5.64Z"/>
      <path d="M12.77,4.69c.53,0,.96-.43,.96-.96s-.43-.96-.96-.96-.96,.43-.96,.96,.43,.96,.96,.96Z"/>
    </g>
  </g>
</svg>