<?xml version="1.0" encoding="UTF-8"?>
<svg id="Layer_1" data-name="Layer 1" xmlns="http://www.w3.org/2000/svg" xmlns:xlink="http://www.w3.org/1999/xlink" viewBox="0 0 24 24">
  <defs>
    <style>
      .cls-1 {
        fill: none;
      }

      .cls-2 {
        clip-path: url(#clippath);
      }

      .cls-3 {
        fill-rule: evenodd;
      }
    </style>
    <clipPath id="clippath">
      <path class="cls-1" d="M12,0h0c6.63,0,12,5.37,12,12h0c0,6.63-5.37,12-12,12h0C5.37,24,0,18.63,0,12H0C0,5.37,5.37,0,12,0Z"/>
    </clipPath>
  </defs>
  <g class="cls-2">
    <g>
      <path d="M14.47,12c0-1.37-1.11-2.47-2.47-2.47s-2.47,1.11-2.47,2.47,1.11,2.47,2.47,2.47,2.47-1.11,2.47-2.47Z"/>
      <path class="cls-3" d="M11.75,5.92c-.15,0-.29,0-.42,0h0c-1.38,0-1.65,0-2.33,.04-.72,.03-1.12,.15-1.38,.26-.35,.13-.59,.3-.85,.56-.26,.26-.42,.51-.55,.85-.1,.26-.22,.65-.26,1.38-.04,.78-.04,1.02-.04,3s0,2.22,.04,3c.03,.72,.15,1.12,.26,1.38,.13,.35,.3,.59,.55,.85,.26,.26,.51,.42,.85,.55,.26,.1,.65,.22,1.38,.26,.78,.04,1.02,.04,3,.04s2.21,0,3-.04c.72-.03,1.12-.15,1.38-.26,.35-.13,.59-.3,.85-.55,.26-.26,.42-.51,.55-.85,.1-.26,.22-.65,.26-1.38,.04-.78,.04-1.02,.04-3s0-2.21-.04-3c-.03-.72-.15-1.12-.26-1.38-.13-.35-.3-.59-.55-.85-.26-.26-.51-.42-.85-.55-.26-.1-.65-.22-1.38-.26-.78-.04-1.02-.04-3-.04-.09,0-.17,0-.25,0Zm3.71,1.38c.15-.1,.32-.15,.49-.15,.49,0,.89,.4,.89,.89,0,.18-.05,.35-.15,.49-.1,.15-.24,.26-.4,.33-.16,.07-.34,.09-.51,.05-.17-.03-.33-.12-.46-.24-.12-.12-.21-.28-.24-.46-.03-.17-.02-.35,.05-.51,.07-.16,.18-.3,.33-.4Zm-7.27,4.7c0-2.1,1.71-3.81,3.81-3.81,2.1,0,3.81,1.71,3.81,3.81s-1.7,3.81-3.81,3.81-3.81-1.7-3.81-3.81Z"/>
      <path class="cls-3" d="M12,24c6.63,0,12-5.37,12-12S18.63,0,12,0,0,5.37,0,12s5.37,12,12,12ZM8.94,4.63c.79-.04,1.04-.04,3.06-.04h0c2.01,0,2.27,0,3.06,.04,.79,.04,1.33,.16,1.8,.34,.49,.19,.9,.44,1.31,.86,.41,.41,.67,.83,.86,1.31,.18,.47,.31,1.01,.34,1.8,.04,.79,.04,1.04,.04,3.06s0,2.27-.04,3.06c-.04,.79-.16,1.33-.34,1.8-.19,.49-.44,.9-.86,1.31-.41,.41-.83,.67-1.31,.86-.47,.18-1.01,.31-1.8,.34-.79,.04-1.04,.04-3.06,.04s-2.27,0-3.06-.04c-.79-.04-1.33-.16-1.8-.34-.49-.19-.9-.44-1.31-.86-.41-.41-.67-.83-.86-1.31-.18-.47-.31-1.01-.34-1.8-.04-.79-.04-1.04-.04-3.06s0-2.27,.04-3.06c.04-.79,.16-1.33,.34-1.8,.19-.49,.44-.9,.86-1.31,.41-.41,.83-.67,1.31-.86,.47-.18,1.01-.31,1.8-.34Z"/>
    </g>
  </g>
</svg>