<?xml version="1.0" encoding="UTF-8"?>
<svg id="Layer_1" data-name="Layer 1" xmlns="http://www.w3.org/2000/svg" viewBox="0 0 24 24">
  <path d="M12,0C5.36,0,0,5.37,0,12c0,5.08,3.16,9.43,7.62,11.18-.11-.95-.2-2.41,.04-3.45,.22-.94,1.4-5.96,1.4-5.96,0,0-.36-.72-.36-1.78,0-1.67,.97-2.91,2.17-2.91,1.03,0,1.52,.77,1.52,1.69,0,1.03-.65,2.57-1,4-.29,1.19,.6,2.17,1.78,2.17,2.13,0,3.77-2.25,3.77-5.49,0-2.87-2.06-4.88-5.02-4.88-3.42,0-5.42,2.56-5.42,5.2,0,1.03,.39,2.13,.89,2.73,.1,.12,.11,.23,.08,.35-.09,.38-.3,1.19-.34,1.36-.05,.22-.18,.27-.4,.16-1.48-.71-2.41-2.9-2.41-4.66,0-3.78,2.74-7.26,7.93-7.26,4.16,0,7.39,2.96,7.39,6.93s-2.61,7.46-6.22,7.46c-1.21,0-2.36-.63-2.74-1.38,0,0-.6,2.29-.75,2.85-.27,1.05-1,2.35-1.49,3.15,1.13,.35,2.31,.53,3.55,.53,6.62,0,12-5.37,12-12,0-6.63-5.38-12-12-12Z"/>
</svg>