<?xml version="1.0" encoding="UTF-8"?>
<svg id="Layer_1" data-name="Layer 1" xmlns="http://www.w3.org/2000/svg" xmlns:xlink="http://www.w3.org/1999/xlink" viewBox="0 0 24 24">
  <defs>
    <style>
      .cls-1 {
        fill: none;
      }

      .cls-2 {
        clip-path: url(#clippath);
      }

      .cls-3 {
        fill-rule: evenodd;
      }
    </style>
    <clipPath id="clippath">
      <rect class="cls-1" width="24" height="24"/>
    </clipPath>
  </defs>
  <g class="cls-2">
    <path class="cls-3" d="M24,12c0,6.63-5.37,12-12,12S0,18.63,0,12,5.37,0,12,0s12,5.37,12,12Zm-11.57-3.14c-1.17,.49-3.5,1.49-7,3.01-.57,.23-.87,.45-.89,.66-.05,.37,.41,.51,1.03,.7,.08,.03,.17,.05,.26,.08,.61,.2,1.44,.43,1.87,.44,.39,0,.82-.15,1.3-.48,3.27-2.21,4.96-3.32,5.06-3.35,.07-.02,.18-.04,.25,.02,.07,.06,.06,.18,.06,.21-.05,.19-1.84,1.86-2.77,2.73-.29,.27-.49,.46-.54,.5-.09,.1-.19,.19-.28,.28-.57,.55-1,.96,.02,1.63,.49,.32,.88,.59,1.27,.86,.43,.29,.85,.58,1.4,.94,.14,.09,.27,.19,.41,.28,.5,.35,.94,.67,1.5,.62,.32-.03,.65-.33,.82-1.23,.4-2.13,1.18-6.73,1.36-8.63,.02-.17,0-.38-.02-.47-.02-.09-.05-.23-.17-.32-.14-.12-.37-.14-.47-.14-.45,0-1.14,.25-4.48,1.63Z"/>
  </g>
</svg>