<?xml version="1.0" encoding="UTF-8"?>
<svg id="Layer_1" data-name="Layer 1" xmlns="http://www.w3.org/2000/svg" viewBox="0 0 16 17">
  <defs>
    <style>
      .cls-1 {
        fill-rule: evenodd;
      }
    </style>
  </defs>
  <path class="cls-1" d="M8,2.98c-3.05,0-5.52,2.47-5.52,5.52s2.47,5.52,5.52,5.52,5.52-2.47,5.52-5.52S11.05,2.98,8,2.98Zm0-.96c-3.58,0-6.48,2.9-6.48,6.48s2.9,6.48,6.48,6.48,6.48-2.9,6.48-6.48S11.58,2.02,8,2.02Z"/>
  <path class="cls-1" d="M8.65,11.33c0,.36-.29,.65-.65,.65s-.65-.29-.65-.65,.29-.65,.65-.65,.65,.29,.65,.64Z"/>
  <path class="cls-1" d="M8,9.31c-.27,0-.48-.21-.48-.48v-3.33c0-.27,.21-.48,.48-.48s.48,.21,.48,.48v3.33c0,.27-.21,.48-.48,.48Z"/>
</svg>