<?xml version="1.0" encoding="UTF-8"?>
<svg id="Layer_1" data-name="Layer 1" xmlns="http://www.w3.org/2000/svg" xmlns:xlink="http://www.w3.org/1999/xlink" viewBox="0 0 24 24">
  <defs>
    <style>
      .cls-1 {
        fill: none;
      }

      .cls-2 {
        clip-path: url(#clippath);
      }

      .cls-3 {
        fill-rule: evenodd;
      }
    </style>
    <clipPath id="clippath">
      <path class="cls-1" d="M12,0h0c6.63,0,12,5.37,12,12h0c0,6.63-5.37,12-12,12h0C5.37,24,0,18.63,0,12H0C0,5.37,5.37,0,12,0Z"/>
    </clipPath>
  </defs>
  <g class="cls-2">
    <g>
      <path class="cls-3" d="M9.26,16.75c.95,.57,2.04,.87,3.15,.87,1.64,0,3.21-.65,4.37-1.81,1.16-1.16,1.81-2.73,1.81-4.37,0-.81-.16-1.62-.47-2.37-.31-.75-.77-1.43-1.34-2-1.08-1.07-2.5-1.7-4.02-1.78-1.51-.08-3,.39-4.18,1.34-1.18,.94-1.98,2.29-2.24,3.78-.26,1.49,.04,3.03,.84,4.31l.14,.23-.62,2.28,2.34-.61,.22,.13Zm6.24-3.91c-.34-.17-.81-.39-.92-.44-.17-.07-.29-.09-.42,.1-.12,.18-.43,.54-.56,.7l-.03,.03c-.11,.13-.21,.14-.4,0-.55-.22-1.05-.53-1.49-.92-.4-.38-.74-.81-1-1.29-.1-.16-.02-.26,.06-.35,0,0,.02-.02,.02-.03,.08-.1,.18-.21,.28-.32,.07-.1,.13-.2,.18-.31,.02-.05,.04-.11,.04-.17s-.01-.11-.04-.16c0-.07-.23-.58-.41-.99-.07-.15-.12-.28-.17-.38-.14-.33-.27-.33-.37-.32-.01,0-.02,0-.04,0h-.4c-.19,0-.37,.09-.5,.23-.21,.2-.37,.44-.49,.71-.11,.27-.17,.55-.16,.84,.05,.71,.31,1.39,.75,1.95,.8,1.19,1.9,2.16,3.19,2.8,.41,.18,.73,.29,1,.37l.05,.02c.38,.11,.78,.14,1.17,.07,.26-.05,.5-.16,.72-.31,.22-.15,.4-.35,.54-.57,.12-.28,.15-.58,.11-.88-.04-.06-.14-.11-.3-.18l-.06-.03c-.06-.03-.19-.09-.35-.17Z"/>
      <path class="cls-3" d="M12,24c6.63,0,12-5.37,12-12S18.63,0,12,0,0,5.37,0,12s5.37,12,12,12ZM15.28,4.56c.91,.37,1.73,.93,2.42,1.63,1.05,1.04,1.76,2.37,2.05,3.82,.29,1.45,.14,2.95-.43,4.32-.57,1.36-1.53,2.53-2.76,3.35-1.23,.82-2.68,1.25-4.16,1.24h.05c-1.23,0-2.44-.31-3.52-.9l-3.94,1,1-3.85c-.65-1.13-.99-2.41-.99-3.71,0-1.3,.34-2.58,.99-3.71,.65-1.13,1.58-2.07,2.71-2.72,1.13-.65,2.4-1,3.7-1.01,.98,0,1.96,.18,2.87,.55Z"/>
    </g>
  </g>
</svg>