<?xml version="1.0" encoding="UTF-8"?>
<svg id="Layer_1" data-name="Layer 1" xmlns="http://www.w3.org/2000/svg" viewBox="0 0 24 24">
  <path d="M24,11.87C23.93,5.35,18.65,.07,12.13,0c.16,5.31,.3,7.74,2.19,9.69,1.95,1.89,4.37,2.01,9.69,2.19Z"/>
  <path d="M11.87,0C5.35,.07,.07,5.35,0,11.87c5.31-.16,7.74-.3,9.69-2.19C11.57,7.74,11.7,5.31,11.87,0Z"/>
  <path d="M24,12.13c-5.31,.16-7.74,.3-9.69,2.19-1.89,1.95-2.01,4.37-2.19,9.68,6.53-.07,11.8-5.35,11.87-11.87Z"/>
  <path d="M11.87,24c-.16-5.31-.3-7.74-2.19-9.68C7.74,12.43,5.31,12.3,0,12.13c.07,6.53,5.35,11.8,11.87,11.87Z"/>
</svg>