<svg width="1319" height="750" viewBox="0 0 1319 750" fill="none" xmlns="http://www.w3.org/2000/svg">
<path d="M921.064 157.978L922.857 160.143H923.8L926.157 157.79L928.328 155.247L932.478 153.364L935.497 155.624L933.799 160.332V162.968L931.818 164.946L928.705 166.359L925.309 167.677H921.913L919.366 170.22L915.309 168.807L913.234 165.794L912.29 164.475L911.912 162.968L914.743 164.287L921.064 157.978Z" fill="black"/>
<path d="M904.93 180.295L907.196 179.353H909.083L910.968 177.471L910.025 173.515H907.007L907.762 170.125V167.677L905.308 168.431H899.271L897.29 170.408L894.176 172.573L891.912 170.313L886.44 172.008L886.818 175.399L891.725 180.295L889.649 181.991L886.818 179.543L885.309 181.048L883.233 178.976L878.516 179.919L876.441 178.789L875.498 181.237L877.007 182.743L874.177 184.251V187.828L876.442 190.088L875.874 192.725H877.95L880.592 195.362L879.836 198.376L883.233 200.07L887.761 200.258L889.649 202.141H893.044L897.006 201.012V197.998L894.554 195.738L895.875 194.42L897.856 196.397L901.346 190.089L904.648 186.793L906.064 188.205L909.083 185.192L910.025 182.367L906.629 181.237L904.365 183.497L901.536 181.425L898.139 179.353L894.742 176.905L895.875 174.457L897.668 172.668L899.082 177.469L901.252 179.636L904.93 180.295Z" fill="black"/>
<path d="M908.517 201.577L906.818 203.084L908.139 206.85L910.309 209.017L912.102 205.532V202.708L910.781 201.389L908.517 201.577Z" fill="black"/>
<path d="M917.385 212.123L916.063 215.137L917.197 216.267L918.895 212.689L923.233 211.746L927.008 210.24L932.102 207.226L929.461 202.33H925.875L920.781 200.634L918.422 202.801L914.082 207.133L915.309 210.051L917.385 212.123Z" fill="black"/>
<path d="M781.533 269.752L779.456 270.129L775.967 273.613V275.966H778.89L779.834 278.226L782.287 277.097L785.118 274.272V269.752H781.533Z" fill="black"/>
<path d="M722.844 195.738L720.579 196.681L718.315 192.725L716.616 191.03L714.54 193.478L713.221 197.057V194.421L713.409 189.712L712.089 187.076L710.202 187.264L707.561 190.465L707.749 193.29L706.616 195.174L707.371 200.26L705.107 202.52L705.295 207.604L704.164 211.935L703.22 216.267L704.919 217.209L708.504 214.383L710.58 213.066L715.296 210.618L719.07 210.241L723.788 206.662L726.051 202.33L724.541 198.564L722.844 195.738Z" fill="black"/>
<path d="M696.239 176.905L694.541 178.977L693.032 181.803L691.711 181.237L692.654 177.659V173.892L688.503 175.211C688.503 175.211 686.051 175.776 685.484 175.964C684.918 176.152 682.088 177.095 682.088 177.095L680.767 179.92L680.012 182.368L678.314 184.44L678.88 186.888L675.673 189.336L677.183 190.654L679.445 189.901L681.333 192.537L681.521 194.985L683.219 197.057L687.559 197.433L688.125 199.881L691.144 197.998L692.654 200.446L696.804 201.953L700.767 200.069L702.655 197.432L701.145 194.419L698.691 191.028L700.579 189.709L701.334 186.508L700.389 182.929L700.767 179.351L696.239 176.905Z" fill="black"/>
<path d="M475.295 323.239L472.276 324.746L470.012 325.499L470.578 330.396L470.955 333.033L473.031 333.597L473.785 337.552L477.748 337.929L479.068 334.728L477.181 331.527L477.37 327.948L475.295 323.239Z" fill="black"/>
<path d="M414.728 314.2L412.087 310.81L411.897 307.985L408.501 306.855L404.351 307.985L401.897 311.187L400.011 313.635L401.331 317.212L404.351 318.343L407.18 319.472L409.823 317.59L413.03 318.155L414.728 314.2Z" fill="black"/>
<path d="M500.199 234.535L502.463 236.795H505.294V233.97L509.444 235.476L511.52 233.216L513.596 230.768H516.238L520.765 228.698L523.973 229.827H528.69L531.804 226.719L535.483 227.002L537.18 229.451H541.142L543.03 231.334L546.427 230.391H551.143L554.257 227.284L557.936 225.307L562.841 223.423H567.369L570.011 227.567V232.087L566.049 235.666L562.464 239.055L557.747 239.432L552.086 242.068L546.992 240.186L544.539 242.634L538.69 242.446H531.143L528.312 245.459H522.464L518.124 247.907L519.445 250.92L516.425 252.049L512.841 251.673H509.634L509.256 253.745L505.86 252.803V256.193L502.463 258.641L499.633 260.713V257.512L497.369 259.584L497.935 263.351H495.671L494.067 261.749V266.364L492.416 264.715L488.5 268.624H486.047L484.16 271.072L481.708 275.214H477.746L474.537 277.852V281.43L471.33 282.749L470.198 286.515L467.557 289.151V293.861L466.236 297.25L467.933 302.146L466.424 307.043L468.5 310.245L469.443 313.635L468.311 314.766L465.104 316.272V313.823L462.085 312.128H460.009L457.745 308.738L456.426 309.491L452.464 305.725L449.443 302.523L450.576 299.133L453.595 298.191L454.726 296.309L452.651 294.614L452.84 290.093L451.519 289.717L450.198 286.326L447.369 286.138L445.105 282.937L445.859 278.793L448.877 274.65L452.464 275.026L453.595 276.345L454.915 276.91L455.481 274.461L459.821 273.144L463.218 269.565L460.954 267.117L463.973 265.233L467.368 266.552L468.313 263.727V260.901H472.651L474.727 262.973L476.896 260.808L477.368 258.831L482.086 257.888L480.482 256.288L476.425 254.875V253.369L481.143 252.049L486.048 250.732L488.5 248.284H491.708V246.024L496.237 245.835L493.785 243.387L497.747 243.199L499.256 244.706L499.066 240.939L500.954 239.055L498.878 236.607L500.199 234.535Z" fill="black"/>
<path d="M673.031 162.96L674.746 164.672L672.486 166.928L671.004 169.808L673.031 172.61L673.811 175.411L677.397 178.524L680.672 175.411H682.855L686.129 173.543L690.028 172.298L688.936 168.563V163.893L691.275 161.87L685.35 155.956L683.946 152.843L680.516 151.909L680.048 155.022L677.241 156.267L673.031 159.068V162.96Z" fill="black"/>
<path d="M675.214 178.68L671.316 177.746L668.665 177.435L669.133 180.859V183.038L672.563 183.972L673.966 185.372L676.072 183.271L677.241 180.236L675.214 178.68Z" fill="black"/>
<path d="M1089.01 84.6701L1090.67 78.6523L1097.01 72.5298L1107.31 62.2573L1113.54 59.559L1118.01 56.9653L1126.43 48.5605L1131.63 46.4848L1135.37 41.0896L1142.44 39.0139L1146.18 35.0705L1150.76 32.9948L1153.67 31.335L1157 34.6558L1161.78 33.2027L1166.04 36.419L1168.85 33.6174L1173.84 30.9191V28.4288L1168.85 29.466L1163.03 29.0514L1159.28 28.0141L1160.53 24.2787L1164.48 21.5804L1161.15 20.7499V18.8821L1163.44 19.0913L1163.86 15.3558L1165.94 12.4509L1168.85 9.54593L1173.84 7.67819H1175.29L1179.04 2.48961C1179.04 2.48961 1182.57 1.45239 1183.82 0.207235C1185.06 -1.03792 1183.82 3.73477 1183.82 3.73477L1186.52 6.01715L1188.6 8.09283L1186.31 12.8655C1186.31 12.8655 1189.43 12.8655 1190.68 11.6204C1191.93 10.3752 1190.68 14.1107 1190.68 14.1107V18.4687L1185.9 21.5816L1189.64 22.2042L1191.93 19.9218L1196.81 21.7896V19.6106L1200.66 23.4494L1203.36 27.6007L1205.65 26.9782L1207.93 24.0732V26.7715L1209.39 30.0923H1205.02V31.7521L1208.56 32.7893L1206.69 38.1846L1201.91 38.5992L1197.54 43.3719L1195.25 48.3526L1190.89 49.8057L1187.77 48.5605H1183.82L1180.28 53.7491L1181.84 56.862V62.1539L1178.41 65.5781L1175.71 63.5024L1173.01 65.5781H1169.06L1166.77 63.7104L1164.69 62.4652L1164.38 64.4363L1165.94 65.9927L1164.07 66.8233L1162.82 68.0684L1166.46 68.691V71.4926L1169.26 74.2942L1173.84 73.0491H1176.96L1177.16 76.9925L1179.03 75.1247L1185.69 81.7664L1187.35 87.7843L1188.18 92.557L1184.86 97.9522H1181.74L1177.37 99.82L1175.92 103.14L1179.45 101.686H1181.74L1178.41 105.631L1180.49 107.706L1183.19 106.668V102.725L1185.69 100.857L1190.16 100.754L1192.76 98.1602L1194.01 96.0845L1197.12 96.2924L1199.62 95.8778L1204.19 95.6699V98.5748H1207.93L1208.97 96.6037H1212.61L1214.8 94.4247L1217.5 94.0101L1219.79 95.8778L1223.11 93.3875L1224.67 97.0196L1227.69 100.029V104.387L1223.53 106.047L1220.83 111.856H1216.46L1215.21 113.723L1220.1 116.94L1218.54 118.496L1222.07 123.893L1223.53 130.533V138.004L1224.78 143.815L1226.85 148.796L1227.9 155.436L1229.97 161.87L1233.92 165.398V171.415L1236 179.717L1239.54 183.66L1241.82 185.943L1238.29 189.056L1234.55 187.188L1229.35 188.848L1226.65 195.073L1222.28 201.299L1224.57 203.583L1222.91 209.394V212.507L1226.44 217.902V221.223L1222.49 219.355L1219.58 216.449L1217.08 216.657L1219.37 222.675V226.618L1223.22 228.383L1219.37 232.222H1216.88V237.617L1214.59 239.899L1217.71 245.088L1227.06 254.426L1227.89 260.238L1228.52 264.804L1234.24 267.812L1237.67 271.236H1243.49L1241.93 267.709V265.944L1243.9 263.973L1245.36 260.86L1250.77 266.255L1251.8 271.028L1257.21 274.764L1262.56 275.957L1264.69 273.83H1268.12L1272.18 277.877L1270.52 281.82L1266.36 283.065L1267.61 288.046L1271.97 295.309L1275.82 296.243L1278.83 299.252L1285.9 298.422L1290.06 301.743L1291.52 305.478L1289.02 307.138L1285.49 309.42L1283.41 313.986L1284.86 322.288L1289.02 328.721L1292.66 330.07L1294.43 331.834L1300.46 333.287V335.778L1295.88 336.4V340.136L1294.22 343.871L1296.3 351.342L1299.83 352.795L1305.24 358.191L1309.19 361.926L1310.02 368.567L1312.1 377.283L1313.14 382.886V387.036L1310.85 383.923H1304.82L1300.98 381.952L1297.96 378.942H1293.8L1290.06 375.207L1282.78 371.886L1275.92 368.981L1268.02 364.831L1265.73 361.718L1261.99 359.228L1257.83 358.397L1248.89 355.699L1243.07 352.586L1237.46 348.851L1234.75 343.87L1228.73 337.852L1224.57 333.494L1224.57 329.136L1221.66 326.231L1221.03 321.458L1217.5 316.478L1213.65 315.647V313.883L1215.42 312.118L1216.88 309.006L1214.9 305.581L1218.33 302.157L1216.25 295.931L1215.21 289.291L1212.72 281.612L1208.77 276.423L1207.1 269.575L1205.23 263.141L1203.15 257.953L1200.66 250.274L1198.16 248.198L1197.95 244.048L1199.41 239.067V232.635L1196.92 230.145L1194.21 224.956H1191.51L1188.91 224.022L1186.52 221.635L1183.61 217.9L1179.24 215.201V210.429L1183.19 206.695L1181.84 205.345L1178.62 208.561L1174.05 211.051V215.409L1172.8 218.73L1175.29 221.013L1182.36 228.069H1186.52L1186.1 230.767L1184.23 230.559L1182.26 233.361L1184.86 235.955V242.595L1186.94 247.576L1187.35 255.461L1185.9 260.238L1184.23 256.088L1180.49 254.22L1180.49 259.408L1175.29 254.22L1173.63 250.692L1167.81 245.297L1169.47 249.863L1167.81 254.844H1162.19V258.164L1160.32 265.013L1158.04 267.711L1158.24 276.842L1161.99 279.332L1161.36 285.143L1165.11 290.954V297.18L1166.25 305.377L1169.68 308.801V312.537L1172.59 315.442L1175.29 315.027L1177.68 312.848L1179.45 311.084H1182.57L1182.36 315.027L1179.04 316.064V321.668L1172.8 322.705L1174.25 329.968L1173.63 333.081L1169.68 334.739V339.097L1168.22 343.041C1168.22 343.041 1163.34 344.183 1164.27 343.249C1165.21 342.315 1162.4 341.381 1162.4 341.381V338.683L1163.23 335.984L1166.66 334.843L1165.11 333.286L1161.36 334.739L1157.41 335.362V337.23L1151.59 339.928L1148.68 343.455L1145.35 344.286L1142.65 346.984L1141.61 350.097L1142.65 354.04L1144.94 356.323L1142.24 359.228L1137.87 357.568L1139.22 362.029L1136 365.246L1133.09 367.944H1130.59L1128.1 370.226L1129.76 372.925L1131.01 374.17L1127.47 376.452H1122.69L1115 384.131L1111.67 389.734L1108.14 393.262L1104.6 400.318L1103.98 407.166L1107.31 413.807L1104.19 416.92L1103.15 423.56L1105.02 428.333L1107.93 431.238L1105.43 435.388V448.462L1104.19 453.651V460.707L1106.27 462.989V473.573L1104.4 480.63V486.441L1101.28 491.629V496.817L1099.61 501.383L1101.48 505.585H1104.66L1107.1 503.147H1110.53L1116.25 497.439L1118.32 499.515L1120.82 500.76V503.458L1122.8 507.089L1125.29 509.58L1127.47 507.401V504.081L1124.56 502.836V499.723L1126.85 497.233V499.307L1129.35 501.175L1130.59 500.76L1131.84 502.005V508.439L1136 506.779V504.705L1138.28 501.592L1139.74 500.347L1142.03 502.007L1142.55 498.582L1140.57 496.611L1138.7 493.082L1136.41 488.932L1140.16 486.858L1142.44 484.574L1147.02 483.537H1152.42L1156.89 484.056L1158.87 486.027C1158.87 486.027 1163.65 485.197 1164.69 485.197C1165.73 485.197 1168.64 483.95 1168.64 483.95L1171.24 486.545L1167.81 489.97L1166.56 492.253H1173.84L1174.67 494.95L1177.79 498.063L1181.64 497.545L1183.61 499.516L1185.69 503.46L1186.31 511.345L1189.02 519.647L1193.28 525.768L1200.66 533.137L1201.7 536.663L1205.86 540.814L1208.77 545.795L1209.81 548.701L1213.65 554.616L1216.88 557.831V566.547L1215.63 574.018L1217.92 581.489L1217.71 589.166L1219.99 595.186L1221.66 601.827L1222.9 607.844L1224.15 615.937V623.824L1222.9 627.976V646.03L1221.66 653.501L1222.9 661.179L1222.49 671.14V675.914L1218.33 682.763L1215.63 688.573L1212.51 694.385H1209.81L1204.61 696.458L1200.24 698.948L1197.23 697.703V694.902L1195.67 693.345L1194.11 696.874V700.712L1189.64 696.251V698.326L1188.81 703.513L1189.64 707.042L1188.5 711.089L1186.73 712.852V718.248L1182.78 718.042L1181.11 716.381L1182.57 711.607L1185.06 706.626V702.477L1182.88 697.599L1176.12 690.855L1174.25 686.081L1170.3 682.139L1166.56 680.894L1166.46 676.847L1171.34 671.971V667.819L1174.25 664.913L1177.58 663.255L1181.01 664.395L1184.03 661.387L1185.9 657.651L1182.57 652.462L1184.23 648.104L1182.15 643.539L1181.74 638.765L1178.83 634.823L1179.66 631.503L1177.37 627.558L1176.33 622.994L1172.17 618.636L1175.29 615.523V610.956L1169.68 605.352L1168.85 602.655H1165.31L1160.32 605.352L1159.08 609.504L1155.75 614.9L1152.01 619.672L1153.67 624.861L1149.3 628.388L1144.94 630.878L1141.2 632.123L1140.16 635.859H1136.21L1132.26 633.578L1129.35 632.539V627.765L1126.02 624.861L1123.31 622.162L1118.85 621.021L1116.45 623.407L1111.67 622.162L1107.72 621.126L1101.69 621.955H1096.08L1093.79 624.239L1087.55 626.52L1081.32 625.275L1078.72 620.192L1075.7 617.181C1075.7 617.181 1072.17 615.107 1072.17 614.275C1072.17 613.443 1068.22 610.333 1068.22 610.333L1063.23 609.504L1061.15 604.523L1056.37 600.788L1053.04 597.468L1048.47 596.223L1046.8 591.865L1042.64 589.997L1040.15 587.507L1031.83 586.675H1027.47L1022.48 589.374L1016.24 588.336L1011.46 589.997H1006.26L999.19 595.184L995.865 598.504L989.315 602.344L986.093 605.561L983.807 612.41L982.143 616.559L984.43 619.465L987.653 616.87L993.163 622.371L994.826 629.01L993.163 632.539L991.915 641.462V647.065L989.627 652.878L992.746 658.894L994.617 660.762V666.574L990.251 667.819L987.444 674.357L983.39 678.403L976.529 680.894L968.837 680.271L963.223 679.233L959.066 681.723L953.244 685.043L948.878 682.761L944.927 681.307L939.73 683.591L932.245 691.062L930.477 697.183L926.839 700.816L922.057 704.136L915.404 707.249L907.711 714.926H901.058L895.028 716.794H886.504L880.267 717.626L874.653 715.758L872.989 712.645L870.079 709.739H862.178L854.902 708.701L851.99 706.833L842.427 708.183H836.501L831.615 713.059L826.21 714.304L821.012 715.758L813.527 715.135L808.435 712.956L805.211 709.739L802.198 703.409L798.35 699.571L792.944 697.497H787.747L781.821 699.051L777.767 695.006H769.659L764.876 691.477L759.262 697.081L756.664 702.373L753.857 705.174L753.025 710.571L755.625 713.684V718.351L759.262 721.984V726.965L754.377 730.182L749.699 734.851H739.719L734.106 733.397L728.284 734.435L724.126 733.19L718.096 731.113L710.819 723.852L706.038 722.4L700.424 724.681L696.889 721.152L692.419 719.182L688.78 722.813H684.207L682.751 727.171H677.346L670.485 731.529L666.326 735.681H662.168L661.336 740.039L656.451 741.179L653.02 744.603L646.783 744.397L641.585 747.301L638.882 750L632.853 748.962L630.981 745.849L628.695 741.697L627.551 737.444L624.329 740.661L618.923 742.736L613.933 741.075L608.32 739.623V734.642L603.954 731.945L602.291 728.21L598.757 725.926L597.925 720.945L595.014 718.248L591.116 716.536L588.569 713.995H583.267L580.668 716.587L575.47 717.419L573.389 715.342L568.816 716.172L564.035 711.4V708.287L561.748 705.59L558.42 706.626L556.133 711.4L551.559 712.229L548.855 706.835L547.4 702.061L546.36 696.665L542.826 690.439V685.458L539.499 682.346V675.497L537.005 667.197L531.184 661.387L528.792 656.302L526.194 653.707L522.66 652.255V648.519H525.57L528.065 645.2L527.026 642.294H523.284L520.165 645.407L515.799 645.613L512.577 645.718L509.146 649.142L503.324 650.803L498.334 653.5L496.046 650.18L491.68 652.255H488.146L489.394 646.652L494.383 644.368V641.464H490.226L486.483 639.181L484.197 641.464L480.039 640.219L481.39 635.341L478.375 632.332L474.217 634.823L469.642 633.578L468.499 629.947L471.098 627.352V623.41L472.137 620.503L470.474 615.316L467.356 613.862H463.613L461.742 610.126H456.544L452.386 607.636L447.812 607.22L445.317 610.749H440.119L435.544 611.994L431.802 609.919L427.227 610.749H421.614L416.208 607.947H414.025L411.634 610.333L407.476 611.165L403.525 609.088H399.991L395.21 607.636L388.14 607.843L382.942 606.807L379.2 607.843L375.873 604.939L371.091 602.449H366.725L365.269 607.013L366.725 610.126L363.815 613.032L366.101 614.484L371.195 619.57L368.596 622.162H365.686L362.152 618.636L356.746 618.842L353.212 620.294L354.668 625.484L353.212 629.22L349.678 630.256L345.521 629.22L343.858 633.578L345.209 636.586L350.094 641.462L350.926 644.991L353.836 647.897L350.926 651.839L348.223 654.536H343.648L338.97 654.847L336.579 652.462L334.916 649.089H332.785L330.55 651.321H326.911L322.856 647.274L322.077 644.94L319.011 641.878V636.586L316.411 633.991H311.629L307.679 635.445L306.223 632.332L302.272 629.22L298.738 627.352L293.956 629.635L289.59 630.258L286.056 629.22L283.561 624.446L280.027 621.333L277.532 625.484H274.829V622.164L277.324 619.674L275.661 616.145L273.581 610.749L272.749 605.146L269.631 601.41L264.641 599.542L263.186 596.016L260.483 593.317L255.493 594.148H252.583V590.204L251.127 586.055L246.034 585.118L243.435 587.713L238.654 589.374L234.496 587.091H230.13L228.05 590.204H218.902L217.861 592.487L215.157 595.184L214.742 599.126L209.649 598.195L206.634 595.184V591.033L207.986 586.986L205.803 584.807H202.267L200.812 588.129L198.108 590.099H194.054L188.129 596.014V599.749L184.595 601.203L180.852 600.994L178.149 603.694L174.822 605.975L176.173 610.022L179.188 613.032L177.941 618.426L175.237 621.126L177.941 622.785L181.891 626.52L184.386 629.01L183.347 634.407L184.491 641.462V647.17L182.308 649.349L180.228 647.065L177.11 646.652L177.525 650.387L179.293 654.018L181.891 656.613L179.812 658.688L176.278 659.103H169.21C169.21 659.103 166.715 659.415 164.74 659.415C162.765 659.415 163.18 657.858 163.18 657.858L160.062 657.026L158.607 655.575L154.865 654.952V657.858L151.955 659.103L148.42 663.252H144.47L140.104 664.497L137.556 663.824L135.426 665.952V669.376L137.609 671.555L138.856 675.497L137.817 679.439L136.881 683.073L134.49 685.458V686.91L132.41 688.778L127.836 696.249V702.061L129.083 709.116L128.251 714.513L128.667 721.152L123.677 723.436L120.35 721.984L115.568 723.643L110.994 722.607L110.37 718.662L108.084 711.813L107.668 706.833L104.341 704.552V701.852L102.678 697.494L99.7679 693.759L101.639 690.646L102.887 687.119L99.7679 683.797L98.7288 680.062L95.1947 679.648L94.4674 677.469L91.8664 674.875L87.292 674.252L84.3816 671.346L83.5496 664.707L80.6392 662.007L81.4713 657.858L77.9372 654.952L76.066 650.18L72.9473 648.726L68.3728 645.613L66.9171 640.633L63.7984 635.861L62.7592 631.71L60.4726 631.294L58.8098 629.22L56.7302 626.313L54.027 626.729L52.3641 621.749L52.9878 612.203L52.1558 605.146L50.4929 601.619L48.4133 598.506L48.8288 592.281L46.3338 589.997L44.6709 586.677L45.9184 582.942L44.8793 578.791L47.1659 576.507L49.6608 576.094L52.9878 580.242L56.1065 581.281L57.5623 578.168L61.0964 576.716L65.8779 576.507H68.3728L71.4915 577.545L72.1153 572.358L70.4524 569.245L71.2844 566.546L73.7794 566.961L76.066 568.623L78.5609 570.904L80.4321 569.036L83.3425 570.281L88.124 570.904L91.6581 572.358L92.4902 568.623L89.9952 566.755L86.4612 565.923L84.1745 563.642L81.6796 562.81L84.7983 559.491L89.3715 557.416L93.3222 559.075L96.8563 557.623L100.183 561.152L105.173 566.546L109.748 561.981L112.866 560.113L112.034 555.546L114.945 552.642L117.855 553.058L117.647 549.736L125.34 548.7L126.796 545.171L128.458 543.097L124.924 541.436V537.078L121.597 533.342L120.35 528.568L117.231 526.701L113.904 522.965L115.152 518.607L113.904 512.173L109.955 509.27L105.38 505.742L103.924 500.968L100.806 498.478L99.7667 495.573L102.47 492.46L104.549 487.894V483.536L102.263 479.386L99.9762 475.858L102.056 474.198L103.303 471.085H105.798L107.669 469.426L109.125 463.822L109.541 460.502L107.876 456.352L105.589 454.068L102.47 453.653L100.183 451.163L98.3121 448.465L95.5053 450.85L93.3222 448.671L91.451 445.558L93.3222 442.238L97.273 438.294L99.9762 435.181L101.015 431.446L104.134 431.238L106.421 433.728L107.668 436.841L111.826 438.295L115.777 437.05L116.816 432.9L118.063 428.334L114.945 425.221L117.024 423.768L116.816 420.241L118.063 415.26L120.35 409.865L122.013 405.299L126.171 404.054L127.626 400.941L131.577 397.62V390.564L128.043 387.244L124.092 386.207L125.34 383.094L126.379 379.773L123.469 376.868L121.597 372.718L122.221 369.813L126.172 365.87L128.458 361.719L127.419 357.984L130.746 357.153L135.736 354.04V349.682L137.816 347.192L143.013 346.984L145.299 344.286L145.508 341.173L149.874 339.513L153.408 334.741L158.189 334.948L162.347 332.458L167.961 333.703L168.793 330.59L170.664 328.723L174.198 330.382L177.108 333.495L181.684 334.947L183.347 338.683L185.01 342.833L187.505 340.342L187.089 334.325L183.347 331.004V323.947L186.674 323.118L187.713 322.081L183.139 320.213L180.435 317.1L227.007 316.892L235.74 313.78V308.384L237.195 294.687H243.017L248.007 290.744V285.349L251.749 283.896V276.839L255.076 276.631L262.353 270.82L265.887 272.48L273.58 258.161L274.1 254.322L280.441 247.993H291.045L294.372 242.182V230.975L309.757 223.296L315.786 225.579H319.321L322.232 228.484L325.802 226.001L324.934 230.351L328.468 229.937L333.457 230.145V233.465L334.497 237.201L332.21 235.748L329.819 233.361L327.636 235.54L328.675 239.483V243.427L332.209 245.294L334.912 247.993V252.351L337.927 253.804V258.681L341.358 262.105L343.021 267.917V273.934L341.981 279.123L343.229 282.028L343.332 288.357L346.971 291.989L346.763 296.555L345.931 304.026L342.292 310.355L336.782 315.855H330.96L324.514 317.1L318.901 315.025L312.767 311.6L308.926 307.76V302.157L304.975 298.214L303.104 293.856L301.648 289.706L298.946 285.141L297.49 277.462L294.58 276.217L295.516 271.547L297.907 269.16L294.997 266.255L293.646 269.888L291.671 271.859L292.503 276.425L292.607 281.717L290.32 283.999L293.335 287.009L292.503 291.575L289.593 298.008L284.499 299.565L280.445 303.612L278.886 310.979L275.04 314.818L276.287 319.176L278.158 324.571L275.143 329.863L283.977 338.683L289.175 334.947L290.214 329.76L287.511 327.062L287.926 322.496V318.968L291.46 315.233H294.994L296.242 324.571L297.386 330.694L301.025 334.326L303.311 339.099L309.237 340.863L311.004 339.099L309.548 335.571L313.083 332.666L313.291 325.403L319.737 326.44L325.766 324.158L330.755 326.856L336.369 325.092H340.215L342.608 327.476L346.142 332.872L343.231 335.776V340.342L345.83 337.126L349.469 333.494L354.459 332.457L358.616 326.439V321.25L360.279 317.723L365.685 315.025V311.704L370.883 308.591V303.402L370.051 298.422H373.585L374.729 301.015L379.407 305.685L382.941 311.08V318.343L381.693 322.078L379.822 323.946L376.703 320.833L372.337 319.796L365.685 322.078V327.474L367.347 332.454V336.605L372.129 337.85L376.703 339.925L381.902 337.435V333.7L387.307 332.454L392.505 334.945L391.673 331.624L399.782 333.077L404.148 332.246L412.048 333.284H416.622L418.909 337.434H420.989V333.698L427.641 331.623H431.178L432.634 337.018H428.683L427.436 340.753L424.317 341.791L429.098 346.149H432.425L438.663 343.45L444.588 344.592L451.034 351.026L453.217 348.847H457.583L463.093 347.083L465.276 349.262L464.653 352.167L461.326 354.449V357.976L465.276 361.297L465.588 357.458L467.356 355.694L471.514 356.731V353.41L475.464 352.788L476.296 347.807L475.673 341.789L479.415 339.922L482.637 338.988L486.483 342.827L488.146 341.167L492.409 346.459L501.246 355.279L503.844 360.571L508.731 365.449L512.058 370.637L515.592 375.41V379.56L518.501 384.131L522.659 381.641V377.283L527.44 372.925L524.113 371.887L521.827 366.492L522.659 360.681L518.708 357.983L516.525 353.521L518.5 351.55L522.657 349.474V346.154L523.696 341.173L525.568 338.683V335.57L522.864 334.739L524.32 330.589L526.607 327.684L530.765 326.231L535.234 324.052L540.328 318.968L543.031 312.95L545.111 307.97L547.397 302.989L551.348 300.913L553.843 304.441H558.833L561.328 306.931H565.694L567.565 313.987L565.485 316.063L564.55 323.637L558.624 329.552L556.961 334.947L560.496 338.06L559.248 345.116L558.209 350.72L554.051 356.945L552.595 365.87L550.309 373.755L548.646 377.699L550.205 383.198L553.844 386.831L553.22 390.151L548.646 393.679L547.814 401.358L543.239 402.603L537.834 407.998L534.715 412.564L531.805 414.224L526.607 413.187L523.488 415.262L520.058 413.083L517.875 410.904L514.756 409.867V413.811L517.875 418.583L520.993 420.036L525.151 422.941L528.685 422.733L531.18 426.261H534.922C534.922 426.261 536.482 423.459 535.65 422.629C534.818 421.798 537.833 420.45 537.833 420.45H540.536L541.784 419.205L546.982 417.752L551.14 415.469V411.111L558.831 403.433L560.079 398.453L559.04 394.095L558.624 390.151L564.238 384.548H568.604L573.386 383.926L574.737 387.972L576.711 389.943L579.206 396.377L575.884 399.696L576.093 404.676V407.789L580.25 411.939L585.032 412.976V410.071L580.354 408.723L578.586 406.958V404.468L578.171 400.733L581.498 399.696L582.745 396.997L581.498 393.054L582.954 389.733L580.874 385.583L578.171 383.093L576.508 381.433L571.415 379.668L568.504 376.763L566.113 379.15L562.994 380.603L561.331 378.321H557.589L556.965 374.378L559.46 371.887L558.836 365.247L561.747 360.681L563.618 355.286L567.776 351.135L566.32 346.57L565.073 342.626L565.593 338.373L562.578 335.363L571.103 326.854H575.469L577.964 322.91L579.627 318.552L578.171 315.025L579.627 311.912H582.954L581.915 316.27V322.288L581.083 327.683L577.34 331.418V340.342L581.706 343.663L584.201 345.739L587.423 343.768L590.646 346.984L594.18 350.305V347.815L592.829 344.598L590.437 342.211L586.695 340.344V338.684L583.576 335.571L582.122 331.004L586.488 328.099L591.894 333.495L594.389 331.213L593.557 328.515L593.245 326.128L595.637 323.741L599.795 324.571L603.225 324.052L606.032 326.854L611.437 329.759L609.981 333.909L614.971 338.889H620.585L621.417 335.569L619.13 332.456L619.339 329.551L615.388 328.098L612.478 323.325L610.813 321.665L612.061 316.684L613.932 312.534L612.269 310.875L611.23 305.686L615.388 301.95H625.159L630.149 303.818V302.573H638.258L643.663 300.291H647.613L649.692 298.215L647.613 295.102L645.118 294.272L643.038 292.196C643.038 292.196 643.87 291.365 645.43 289.809C646.989 288.253 646.989 291.365 646.989 291.365L649.484 290.743L647.821 288.875L648.965 286.281L647.197 284.517L649.277 281.612L652.187 279.33L649.277 279.122L649.068 276.009L654.89 276.217L657.177 271.444L662.894 269.265L665.077 267.086L672.874 265.944L674.849 263.973L680.462 262.313L681.71 260.86L677.967 259.615L680.047 257.539L685.452 256.294L690.026 255.672L691.066 253.389L694.808 252.767L692.833 256.502V259.512L695.432 256.918L701.879 257.125L702.502 253.804L706.66 252.973L710.818 253.804L708.947 251.314L706.452 249.446L705.204 247.163H709.779L714.56 245.71H716.016L715.601 242.183L713.937 240.938V235.957L714.977 232.636L718.096 224.957L721.838 222.259L725.164 218.731L729.323 221.222L732.442 220.807L733.377 225.062L730.154 228.278L727.452 231.806L734.052 232.169L735.352 230.872H739.406L742.421 233.881L739.718 236.58C739.718 236.58 739.51 239.278 740.757 239.278C742.005 239.278 745.332 240.731 745.332 240.731L746.371 237.203L744.5 235.336L749.074 232.845H753.232L757.495 229.836L759.886 232.223L763.108 230.666L765.5 233.053L767.578 237.203L770.073 239.279L771.529 237.619L776.518 242.6L776.103 246.958L771.944 246.127L773.608 247.787L777.766 250.07L780.364 254.531L777.974 256.917V261.067L775.895 263.972L773.92 268.019L771.529 270.406L767.371 275.386V277.462L766.123 283.273L763.005 286.386L761.757 292.82L756.767 294.065L755.208 298.734L751.777 302.158L750.945 307.554L749.906 311.289L753.649 309.629L752.817 305.479L756.559 303.197C756.559 303.197 759.886 302.16 761.757 302.16C763.628 302.16 764.252 298.424 764.252 298.424L767.786 295.519L771.113 294.274L773.088 290.435L771.529 288.879L769.034 288.671L769.242 287.009L769.034 283.688L772.152 283.48H774.647L778.181 284.31L782.34 285.97L783.171 283.48L785.771 279.848L787.954 282.027V286.177L790.449 289.704H793.359L790.449 287.009L796.27 281.199L801.468 278.5L809.368 277.047L815.605 275.18L817.166 277.567L815.71 279.02L819.141 282.444H825.585L825.794 280.784L826.417 278.502L828.912 282.445L833.278 280.785L837.644 277.05C837.644 277.05 842.219 276.219 843.258 276.219C844.297 276.219 843.258 272.484 843.258 272.484L842.634 268.334L839.516 263.561L840.348 258.788L840.971 256.298L843.466 258.788L846.065 256.817L848.248 258.996L851.575 261.279L852.406 258.788L854.07 258.37L855.733 260.238L857.396 258.992C857.396 258.992 857.189 255.154 858.748 255.154C860.307 255.154 860.723 253.183 860.723 253.183L865.297 256.71L866.752 255.257L871.742 256.917L870.079 262.001H872.469L874.86 264.388V268.331L878.811 265.841L880.89 267.917V272.483L878.187 273.313L876.524 274.972L879.435 277.877C879.435 277.877 881.721 276.839 881.721 275.801C881.721 274.762 883.593 277.669 883.593 277.669V280.989L887.855 280.885L891.909 284.932L895.028 287.007L899.394 287.838L901.265 285.97L906.047 288.46L906.464 284.518L904.384 277.67L903.137 274.557V271.652L900.433 268.954V265.218L905.632 265.841L908.542 268.746L913.116 267.501H918.315L917.274 262.105L920.186 256.71L925.591 255.465L929.542 255.257L934.115 256.502V253.389L929.23 251.21L930.996 249.446L933.284 246.956L937.234 247.163L940.352 244.051L938.898 243.22L935.779 240.107L932.244 238.239V233.673L930.789 232.428L928.71 237.824L926.215 236.164V231.806L930.789 227.656L930.165 224.751L925.799 222.052L928.501 219.354H932.452L938.274 216.449L939.937 211.676L947.63 208.771L953.659 206.073C953.659 206.073 954.491 206.904 954.491 208.149C954.491 209.394 950.54 210.847 950.54 210.847L949.085 216.45L952.62 214.789L955.739 211.676L959.688 212.922L958.649 221.015L962.183 217.694V213.751L960.936 207.11L961.768 204.205L963.639 199.017L968.005 196.941L974.242 194.243L977.985 196.941C977.985 196.941 976.217 199.328 974.866 200.677C973.515 202.025 976.322 202.96 976.322 202.96H980.895L983.807 199.639C983.807 199.639 987.132 203.167 987.756 203.79C988.38 204.412 987.132 199.017 987.132 199.017L992.746 195.904L996.697 197.98L1001.06 197.773L1005.01 193.83L1009.17 188.641V182.623L1014.37 174.944L1018.74 170.586L1022.69 165.813L1029.55 164.776L1035.26 164.465L1043.89 173.078L1049.09 170.795L1052.83 167.786H1056.89L1054.91 165.813V162.907L1058.86 158.965V152.117L1060.73 148.589H1063.85L1066.56 145.891V141.741L1071.75 138.005L1073 133.025L1070.92 130.949L1071.75 128.459L1068.84 124.309L1071.13 120.157L1073.31 117.978L1077.26 121.922L1074.25 124.931L1077.37 128.044H1082.15L1085.48 126.799L1090.05 124.723L1094.21 123.686L1095.25 120.365L1094 117.044L1091.71 116.63L1084.64 113.517L1079.45 114.347L1078.2 111.442H1074.04V109.16L1075.08 105.217L1078.82 103.349L1079.24 98.9907L1082.56 97.123H1085.48L1084.23 93.5954L1085.48 89.86L1089.01 84.6701Z" fill="black"/>
<path d="M1121.61 483.229L1118.19 483.948L1116.39 485.923V491.129L1119.45 489.872L1121.07 491.489L1122.87 489.694L1123.59 486.101L1121.61 483.229Z" fill="black"/>
<path d="M1168.2 465.454L1166.76 465.813L1165.68 462.76V460.067L1170.36 461.323L1172.7 462.4L1173.96 465.274L1176.48 467.788L1180.97 468.686L1182.05 471.559L1187.09 474.791H1189.79L1191.95 477.843L1193.74 482.692L1196.53 485.473L1201.84 490.951L1205.26 491.849L1209.93 493.644L1214.43 497.595L1220.55 501.005L1224.5 504.417L1229.72 507.11L1234.22 509.804L1237.1 512.137L1242.13 514.113L1241.42 516.448L1239.62 518.242L1236.2 519.319H1233.5L1234.22 523.09L1233.5 525.783V527.937L1236.56 532.606C1236.56 532.606 1239.44 535.836 1238.9 536.375C1238.36 536.915 1239.08 541.943 1239.08 541.943L1245.02 547.87L1248.07 549.844H1252.75L1255.45 552.536H1258.51L1260.12 555.948L1264.08 556.129L1266.51 553.704L1270.74 556.129L1273.26 559.361C1273.26 559.361 1274.16 561.515 1273.26 561.515C1272.36 561.515 1267.5 559.18 1267.5 559.18L1265.43 561.245H1260.85L1259.41 564.927L1260.31 568.517L1263.18 571.389L1265.34 576.059L1262.47 578.393L1260.13 575.521L1257.07 572.466L1251.67 567.44V564.028L1244.66 557.026L1242.32 553.974L1239.44 548.407L1235.84 544.996L1232.06 542.841L1228.47 541.764L1225.41 535.301L1218.75 526.144L1208.86 516.269L1204.9 510.882L1202.38 506.753L1195.55 503.7L1190.15 501.367L1186.91 501.007L1182.59 495.081V492.389L1177.92 487.72L1175.4 483.051L1170.36 481.435L1171.62 477.844V475.151L1175.76 476.407L1176.48 472.816L1174.05 470.393V469.046L1171.67 466.665L1168.2 465.454Z" fill="black"/>
<path d="M1236.02 245.494V240.467L1232.6 239.03L1230.44 240.288V244.237L1230.08 247.828L1232.24 249.265L1233.68 251.061L1233.86 254.292L1236.74 255.369L1236.02 252.138L1234.76 249.624L1236.02 245.494Z" fill="black"/>
<path d="M1312.02 398.386L1313.19 400.809L1312.83 404.041L1312.65 408.17L1314.54 410.055L1316.61 408.888V404.579L1318.5 402.695L1316.97 399.013L1314.45 396.499L1314.63 393.268L1312.83 391.472L1311.76 394.704L1310.05 396.409L1312.02 398.386Z" fill="black"/>
<path d="M1079.91 51.397L1078.06 49.406L1080.81 45.424L1080.33 41.0995V35.9508L1077.64 33.8228L1075.99 33.2052L1074.55 34.7143L1071.39 36.3629L1068.81 38.9367L1069.05 43.3645L1067.95 44.4639L1068.5 48.0326L1070.56 51.0533L1072.69 55.9966L1075.99 56.6827L1078.23 54.4514L1079.91 51.397Z" fill="black"/>
<path d="M46.385 318.781L49.6209 319.506L52.394 318.715L53.4506 316.672L55.9593 317.068L58.3045 319.408L58.4031 322.604L60.3179 323.198L60.7146 325.702L63.6861 326.23L64.346 323.857L62.7293 322.242L64.1152 320.858L65.0072 321.748L67.8464 324.121V327.679L67.4497 330.777L69.1001 333.479L70.7518 334.6L71.3456 338.62L69.8935 341.652L62.9601 345.146L52.4601 332.688L46.385 318.781Z" fill="black"/>
<path d="M21.3386 537.552L20.2061 536.563L18.778 535.429L17.7261 534.664L16.7536 534.014L12.8957 533.917L10.6506 534.174L8.75328 533.083L6.8876 532.505L5.81246 531.83L4.16812 533.307L4.38947 535.362L6.00219 536.197L7.86787 536.775L8.94301 539.76L9.16436 542.072L8.59517 543.934L8.87977 546.503L8.08923 548.91L5.43299 550.227L4.04164 551.672L2.01784 551.896L0.5 554.368L1.32217 557.386L2.08109 559.634L5.08516 561.624L8.37382 561.271L10.3027 560.276L13.2119 558.927L15.3306 559.505L18.0501 561.271L18.8561 562.773L19.6034 563.721L20.9914 564.982L24.1826 566.083L27.4758 566.134L31.1893 566.086L32.7059 569.211L33.5699 571.475L37.9312 574.289L42.1763 575.091L43.6806 572.653L47.2352 573.2L43.8458 569.78L43.4645 568.402L42.8444 567.356L42.1894 566.657L38.4095 566.056L34.2533 563.78L31.2944 559.207L33.1389 556.478L34.0012 552.497L33.51 548.879L32.9866 548.382L31.803 547.5L31.5811 546.839L32.4826 542.905L30.3722 540.798L30.2935 537.536L27.8623 537.134L27.4597 538.763L25.4585 538.578L22.8488 539.009L21.3386 537.552Z" fill="black"/>
<path d="M1165.32 602.656L1160.33 605.353L1159.08 609.504L1155.75 614.9L1152.01 619.672L1153.67 624.862L1149.31 628.388L1144.94 630.878L1141.2 632.123L1140.16 635.859H1136.21L1132.26 633.578L1129.35 632.539V627.765L1126.02 624.862L1123.32 622.162L1122.88 617.573L1123.85 615.121L1122.92 611.872L1124.95 611.058L1127.16 611.489L1129.35 608.084L1131.26 606.178L1130.9 601.832L1134.28 601.39L1137.84 602.011L1142.55 599.793L1145.92 601.39L1150.01 606.269L1152.68 602.631C1152.68 602.631 1158.1 601.651 1158.37 601.39C1158.63 601.128 1160.5 597.487 1160.5 597.487L1164.77 596.954L1168.32 595.533L1167.97 598.904L1169.3 600.236L1168.85 602.656H1165.32Z" fill="black"/>
</svg>
