<?xml version="1.0" encoding="UTF-8"?>
<svg id="Layer_1" data-name="Layer 1" xmlns="http://www.w3.org/2000/svg" xmlns:xlink="http://www.w3.org/1999/xlink" viewBox="0 0 96 24">
  <defs>
    <style>
      .cls-1 {
        fill: none;
      }

      .cls-2 {
        clip-path: url(#clippath);
      }

      .cls-3 {
        fill: #a9a7a4;
        fill-rule: evenodd;
      }
    </style>
    <clipPath id="clippath">
      <rect class="cls-1" width="96" height="24"/>
    </clipPath>
  </defs>
  <g class="cls-2">
    <g>
      <path class="cls-3" d="M51.61,5.81c.23,.24,2.31,6,2.53,6.71,.22,.76,.52,1.49,.91,2.17,.72,.17,.79-.58,1.01-1.18,1.18-3.23,2.97-7.93,3.87-11.1,.62-1.53,.68-1.95-.45-1.95s-1.01,.77-1.45,1.76c-.39,1.89-1.92,5.88-2.47,7.72q0,.24-.29,.24c-.94-2.73-2.02-6.07-3.08-8.77-.29-.53-.79-.64-1.13,.54-.57,1.88-1.36,4.11-1.97,5.93,0,0-.73,2.3-.79,2.42-.39-.65-.67-1.37-.84-2.12-.84-2.17-1.58-4.52-2.3-6.69-.18-.41-.18-.65-.57-.9-.39-.15-.82-.19-1.24-.11-1.11,.18-.39,1.12-.16,1.82,1.36,3.82,2.87,8.41,4.37,12.05,.04,.09,.09,.17,.17,.23,.07,.06,.16,.1,.25,.11,.09,.01,.19,0,.27-.04,.09-.04,.16-.1,.22-.17,.22-.44,2.97-8.67,3.14-8.67Z"/>
      <path class="cls-3" d="M.22,.71c-.06,.24-.04,.49,.05,.71C.5,2.42-.18,13.76,0,14.21c.55,.26,1.17,.32,1.75,.17,.27-.3,.16-.58,.16-1.05,0-2,.16-3.94,.16-6,.07-.77,.12-1.29,.12-1.76s0-.41,.11-.53c.11-.11,1.89,3.13,2.06,3.48,.34,.7,1.01,1.76,1.45,2.59,.68,1.29,1.02,.41,1.18,.11,.39-.53,3.44-6.11,3.65-6.22,.2,.23,.2,5.81,.2,6.22,0,3.06-.34,3.35,1.51,3.23,.57,0,.62-.47,.57-.99v-3.11c-.15-2.53-.26-5.41-.26-7.93,0-.3,.11-1.42,.11-1.59-.17-.2-.39-.33-.64-.37-.25-.04-.5,0-.72,.13-.39,.24-.5,.77-.79,1.12-1.14,2.12-2.68,4.52-3.75,6.52-.39,.71-.39,.47-.73,0-.73-1.12-1.68-3.06-2.35-4.18L2.46,1.71c-.19-.41-.43-.79-.72-1.12-.38-.28-1.13-.06-1.52,.13Z"/>
      <path class="cls-3" d="M71.89,7.29c.48-.41,1.05-.69,1.66-.81,.61-.12,1.24-.09,1.83,.1,1.79,.82,2.02,3.6,1.24,4.94-.34,.53-.82,.93-1.38,1.16-.56,.23-1.18,.26-1.77,.11-.57-.12-1.1-.36-1.58-.71V7.29Zm0-2c-.08-1.55-.08-3.1,0-4.65,0-.64-.22-.75-.79-.53-1.36,.6-1.36,.36-1.17,1.65,.11,.65,0,8.23,0,9.29,0,2.1-.29,2.59,2.64,3.47,.83,.18,1.69,.19,2.52,.01,.83-.17,1.62-.52,2.33-1.02,2.87-2.46,2.08-9.39-3.15-8.87-.46,.03-.91,.08-1.36,.17-.18,.06-.84,.47-.92,.47h-.1Z"/>
      <path class="cls-3" d="M32.28,14.34c.21-.74,.27-1.52,.18-2.29-.06-.8-.06-1.61,0-2.42,.16,0,.34,.3,.68,.65,.34,.36,3.14,3.41,3.59,3.75,.16,.15,.34,.26,.55,.33,.21,.06,.42,.07,.63,.03,.39,0,1.02,0,1.24-.28,0-.41-.79-1.07-1.13-1.42-.34-.36-.77-.81-1.17-1.29-.86-.8-1.67-1.65-2.42-2.57,0-.13,3.08-2.84,3.65-3.35,.22-.24,.45-.3,.39-.65-.7-.23-1.45-.23-2.15,0-.27,.13-2.13,1.89-2.64,2.36-.16,.17-1.13,1.24-1.24,1.18-.16-.54,0-7.89-.11-8.3-.11-.41-2.02,.24-1.97,.95,.11,.5,.16,1.01,.16,1.52V12.69c0,.36-.11,1.42,.12,1.59,.53,.14,1.08,.16,1.62,.06h0Z"/>
      <path class="cls-3" d="M17.65,9.52c.62-.17,2.72,.36,2.81,.94,.05,.63,.05,1.26,0,1.89-.39,.53-3.1,1.58-3.99-.3-.12-.27-.18-.56-.18-.85s.06-.59,.18-.85c.13-.22,.3-.4,.51-.54,.2-.14,.43-.24,.67-.28Zm2.87-.71c-.53-.37-1.12-.62-1.74-.75-.77-.09-1.56-.03-2.31,.17-.63,.19-1.19,.59-1.6,1.14-.4,.55-.63,1.22-.64,1.91s.19,1.37,.57,1.93c.38,.56,.93,.98,1.55,1.2,1.07,.38,2.24,.38,3.31,0,.23-.11,.68-.41,.84-.47,.16-.06,.23,.41,.45,.53s1.24,0,1.52-.28c.29-.28,.34-.24,.16-.65-.26-.54-.36-1.16-.27-1.76V7.52c.07-.6-.07-1.21-.39-1.71-1.07-2.23-7.54-1.35-7.02,.54,.52,1.89,1.36-.65,4.21-.3,1.53,.17,1.37,1.71,1.37,2.76h-.03Z"/>
      <path class="cls-3" d="M87,8.53h-4.66c.06-.58,.32-1.13,.72-1.53,.44-.4,.99-.65,1.58-.7,.3-.03,.61,.01,.9,.11s.56,.26,.79,.47c.23,.2,.41,.45,.53,.74,.12,.29,.17,.6,.15,.91h0Zm-4.78,1.52c.34-.17,5.43,0,6.36,0s.5-3.17-1.18-4.46c-.69-.54-1.51-.86-2.36-.93-.86-.07-1.71,.11-2.47,.53-.76,.42-1.39,1.05-1.82,1.83-.43,.78-.64,1.67-.61,2.56-.03,.87,.16,1.74,.56,2.5,.4,.77,.99,1.4,1.71,1.85,1.51,1.07,5.56,1.01,6.06-.64,.62-2.12-.84-.94-1.36-.71-.43,.19-.89,.31-1.36,.36-3,.36-3.74-2.42-3.52-2.88Z"/>
      <path class="cls-3" d="M61.84,8.52c.05-.61,.31-1.17,.74-1.59,.43-.41,.99-.64,1.57-.64,1.17-.13,2.53,.94,2.3,2.23h-4.6Zm-.23,1.42h6.3c.73,0,.61-.47,.56-1.05-.04-.79-.27-1.55-.68-2.22-.41-.67-.97-1.21-1.64-1.58-.67-.37-1.42-.55-2.17-.52s-1.49,.26-2.13,.67c-.72,.45-1.32,1.1-1.71,1.87-.4,.78-.58,1.65-.53,2.53-.06,.87,.13,1.73,.54,2.49,.41,.76,1.02,1.37,1.76,1.77,1.92,1.24,5.68,.71,6.02-.7,0-.41,.27-1.42-.34-1.18-.74,.44-1.54,.74-2.38,.9-.45,.06-.9,.03-1.33-.09-.43-.12-.84-.33-1.2-.62-.49-.41-1.28-1.65-1.06-2.27Z"/>
      <path class="cls-3" d="M92.11,14.39c.34-.36,.29-.53,.29-1.05v-1.42c0-1.88-.34-4.99,1.74-5.46,.45-.11,.56,.28,1.13,.17,.34-.32,.59-.72,.73-1.17,0-.9-1.36-1.07-2.59-.48-.39,.18-.72,.82-1.01,.88,0-.53,.11-.75-.23-1.22-.44,.04-.86,.18-1.24,.41-.56,.28-.67,.28-.56,.99,.11,.71,0,5.58,0,6.75,.05,1.78,.05,1.72,1.74,1.59Z"/>
      <path class="cls-3" d="M25.89,14.34v-.11c.16-1.44,.2-2.9,.12-4.35,0-1.12,.27-2.94,1.45-3.3,.95-.36,1.01,.58,1.63,0,1.45-1.59-.5-2.23-1.68-1.71-1.18,.53-1.02,.94-1.36,1.05-.03-.23-.03-.47,0-.7,0-.3-.12-.3-.23-.47-.44,0-.86,.12-1.24,.36-.56,.23-.73,.28-.56,.99,.12,1.09,.16,2.19,.11,3.28v3.24c.12,1.76-.11,1.89,1.75,1.71Z"/>
      <path class="cls-3" d="M51.22,16.23c-2.24,.29-4.45,.84-6.57,1.63-.67,.3-1.36,.47-2.02,.77-1.36,.53-2.64,.99-3.98,1.53-.45,.17-3.65,1.17-4.21,1.29-2.72,.7-6.79,1.52-9.39,.28-1.24-.64-1.36,1.35,1.45,2.06,1.64,.3,3.33,.22,4.94-.23,1.36-.3,2.99-.82,4.28-1.24,1.29-.41,2.81-.88,4.21-1.29,.34-.13,.61-.24,1.01-.36l2.08-.65c.39-.11,.68-.28,1.02-.41l2.15-.53c.39-.11,.68-.23,1.02-.36,2.84-.63,5.74-.95,8.65-.94,.72,0,1.79,.18,2.53,.3,1.36,.17,1.06-.58,.16-1.07-2.33-.93-4.85-1.21-7.32-.81h0Z"/>
    </g>
  </g>
</svg>