<svg width="56" height="56" viewBox="0 0 56 56" fill="none" xmlns="http://www.w3.org/2000/svg">
<path fill-rule="evenodd" clip-rule="evenodd" d="M54.4923 36.8724C54.4923 39.8076 53.7466 41.5732 52.1548 43.1947C50.6837 44.6923 48.2822 45.5323 45.1421 45.5323H30.3376V40.4676C31.2606 40.083 32.0491 39.4338 32.6037 38.6019C33.1584 37.7699 33.4544 36.7924 33.4544 35.7925C33.4544 34.7926 33.1584 33.8151 32.6037 32.9831C32.0491 32.1511 31.2606 31.5019 30.3376 31.1174V17.4817H33.4544V20.5984H37.3503V14.3649H19.429V20.5984H23.325V17.4817H26.4417V31.1174C25.5187 31.5019 24.7302 32.1511 24.1756 32.9831C23.6209 33.8151 23.325 34.7926 23.325 35.7925C23.325 36.7924 23.6209 37.7699 24.1756 38.6019C24.7302 39.4338 25.5187 40.083 26.4417 40.4676V45.5323H1.50781V34.6237H4.62455V31.507H1.50781V20.5984H15.5331V10.469H41.2462V20.5984H45.1421C47.5576 20.6599 48.9321 21.0417 50.4593 22.1848C51.4248 22.8915 52.202 23.8246 52.7227 24.902C53.2433 25.9793 53.4914 27.1681 53.4451 28.3637C53.4688 29.7792 53.0142 31.1612 52.1548 32.2861C52.8687 32.8214 53.4505 33.5131 53.8557 34.308C54.2609 35.103 54.4787 35.9802 54.4923 36.8724ZM16.3123 24.4943V31.507H12.4164V24.4943H5.40373V27.611H8.52047V38.5196H5.40373V41.6364H12.4164V34.6237H16.3123V41.6364H23.325V38.5196H20.2082V27.611H23.325V24.4943H16.3123ZM47.4797 32.2861C48.1628 31.9252 48.7393 31.3914 49.1515 30.738C49.5637 30.0845 49.7973 29.3344 49.8289 28.5624C49.8289 26.3394 47.9121 24.5387 45.1421 24.4943H33.4544V27.611H36.5711V38.5196H33.4544V41.6364C33.4544 41.6364 50.1601 41.6364 45.9416 41.6364C47.2108 41.6035 48.4149 41.0679 49.2893 40.1474C50.1637 39.2268 50.6367 37.9967 50.6042 36.7275C50.5742 35.7629 50.2623 34.8282 49.7071 34.0389C49.1518 33.2496 48.3774 32.6403 47.4797 32.2861ZM44.3629 38.5196H40.467V34.6237H44.3629C44.7762 34.6237 45.1726 34.7879 45.4649 35.0801C45.7571 35.3724 45.9213 35.7688 45.9213 36.1821V36.9613C45.9213 37.3746 45.7571 37.7709 45.4649 38.0632C45.1726 38.3554 44.7762 38.5196 44.3629 38.5196ZM43.5837 31.507H40.467V27.611H43.5837C43.9971 27.611 44.3934 27.7752 44.6857 28.0675C44.9779 28.3597 45.1421 28.7561 45.1421 29.1694V29.9486C45.1421 30.3619 44.9779 30.7583 44.6857 31.0505C44.3934 31.3428 43.9971 31.507 43.5837 31.507ZM25.6625 33.4549C25.6625 33.2238 25.7311 32.9978 25.8595 32.8056C25.9879 32.6134 26.1704 32.4636 26.384 32.3751C26.5976 32.2867 26.8326 32.2635 27.0593 32.3086C27.286 32.3537 27.4943 32.465 27.6577 32.6285C27.8212 32.7919 27.9325 33.0002 27.9776 33.2269C28.0227 33.4536 27.9996 33.6886 27.9111 33.9022C27.8226 34.1158 27.6728 34.2983 27.4806 34.4267C27.2884 34.5552 27.0625 34.6237 26.8313 34.6237C26.5213 34.6237 26.224 34.5006 26.0048 34.2814C25.7856 34.0622 25.6625 33.7649 25.6625 33.4549Z" fill="#393938"/>
</svg>
