<svg width="120" height="56" viewBox="0 0 120 56" fill="none" xmlns="http://www.w3.org/2000/svg">
<path d="M4.54102 54.1474H6.68676V52.2691H12.9654V54.1474H15.1112V50.3641H14.2022V42.1038H7.04615L6.4595 47.3012C6.1424 49.9852 5.56632 50.3961 4.54102 50.5348V54.1474ZM8.58939 47.4559L8.98049 44.0088H12.0458V50.3641H7.36325C7.99746 49.7718 8.43612 48.8273 8.58939 47.4559Z" fill="#393938"/>
<path d="M25.42 52.2691V42.1038H23.2584V46.0952H18.5018V42.1038H16.3613V52.2691H18.5018V48.0002H23.2584V52.2691H25.42Z" fill="#393938"/>
<path d="M29.4669 52.2691L34.2657 45.4549V52.2691H36.4115V42.1038H34.2076L29.5409 48.6725V42.1038H27.4004V52.2691H29.4669Z" fill="#393938"/>
<path d="M41.6641 54.1474H43.8098V52.2691H50.0885V54.1474H52.2342V50.3641H51.3252V42.1038H44.1692L43.5825 47.3012C43.2654 49.9852 42.6894 50.3961 41.6641 50.5348V54.1474ZM45.7124 47.4559L46.1035 44.0088H49.1689V50.3641H44.4863C45.1205 49.7718 45.5592 48.8273 45.7124 47.4559Z" fill="#393938"/>
<path d="M55.5508 52.2691L60.355 45.4549V52.2691H62.4954V42.1038H60.2916L55.6248 48.6725V42.1038H53.4844V52.2691H55.5508Z" fill="#393938"/>
<path d="M67.9476 52.4553C70.3523 52.4553 72.0858 51.2173 72.0858 49.4671C72.0858 47.941 70.7593 47.1352 69.7445 47.0285C70.8491 46.831 71.9326 45.9879 71.9326 44.7073C71.9326 43.0157 70.3048 41.9485 67.9476 41.9485C66.1824 41.9485 64.7501 42.6368 63.9362 43.5653L65.0038 44.9207C65.7173 44.2377 66.7585 43.8695 67.7362 43.8695C68.8831 43.8695 69.7921 44.2697 69.7921 45.0755C69.7921 45.8225 68.9306 46.1587 67.7362 46.1587H65.7015V48.0637H67.7362C69.2477 48.0637 69.9559 48.4265 69.9559 49.2376C69.9559 50.0007 69.1896 50.5343 67.8578 50.5343C66.88 50.5343 65.6116 50.1074 64.914 49.3764L63.7988 50.8225C64.5387 51.7349 66.0926 52.4553 67.9476 52.4553Z" fill="#393938"/>
<path d="M83.0881 52.2691L79.2088 42.1038H76.524L72.6289 52.2691H75.0759L75.7101 50.5509H80.028L80.6464 52.2691H83.0881ZM79.4361 48.6405H76.2967L77.8664 44.2702L79.4361 48.6405Z" fill="#393938"/>
<path d="M86.0919 52.2701L90.8907 45.4559V52.2701H93.0365V42.1048H90.8326L86.1659 48.6735V42.1048H84.0254V52.2701H86.0919ZM91.1814 40.2905L90.3358 39.5754C89.913 40.1677 89.2893 40.5199 88.5389 40.5199C87.7514 40.5199 87.133 40.1517 86.7261 39.5754L85.8805 40.2905C86.4988 41.1122 87.466 41.6298 88.5389 41.6298C89.6223 41.6298 90.5736 41.1122 91.1814 40.2905Z" fill="#393938"/>
<path d="M104.094 52.2691V42.1038H101.932V46.0952H97.1809V42.1038H95.0352V52.2691H97.1809V48.0002H101.932V52.2691H104.094Z" fill="#393938"/>
<path d="M115.459 52.2691L111.579 42.1038H108.889L104.994 52.2691H107.441L108.075 50.5509H112.393L113.012 52.2691H115.459ZM111.807 48.6405H108.662L110.237 44.2702L111.807 48.6405Z" fill="#393938"/>
<path d="M43.4211 7.12549C43.5374 7.12549 43.6536 7.15217 43.7646 7.2162C43.8809 7.28024 43.9655 7.36561 44.0289 7.47767C44.0923 7.59507 44.124 7.71246 44.124 7.83519C44.124 7.96326 44.0923 8.08066 44.0342 8.19271C43.9707 8.30477 43.8809 8.39549 43.7699 8.45418C43.6589 8.51822 43.5427 8.55024 43.4211 8.55024C43.2995 8.55024 43.178 8.51822 43.067 8.45418C42.956 8.39549 42.8662 8.30477 42.808 8.19271C42.7446 8.08066 42.7129 7.96326 42.7129 7.83519C42.7129 7.71246 42.7446 7.59507 42.808 7.47767C42.8714 7.36561 42.9613 7.28024 43.0723 7.2162C43.1833 7.15217 43.2995 7.12549 43.4211 7.12549ZM43.4211 7.24288C43.3207 7.24288 43.2255 7.26956 43.1304 7.31759C43.0353 7.37095 42.9613 7.44566 42.9084 7.54171C42.8556 7.63776 42.8292 7.73381 42.8292 7.83519C42.8292 7.94192 42.8556 8.03797 42.9084 8.13402C42.9613 8.23007 43.03 8.29944 43.1251 8.3528C43.2203 8.40616 43.3154 8.43284 43.4211 8.43284C43.5215 8.43284 43.6166 8.40616 43.7118 8.3528C43.8069 8.29944 43.8809 8.23007 43.9285 8.13402C43.9813 8.03797 44.0077 7.94192 44.0077 7.83519C44.0077 7.73381 43.9813 7.63776 43.9285 7.54171C43.8756 7.44566 43.8016 7.37095 43.7065 7.31759C43.6166 7.26956 43.5162 7.24288 43.4211 7.24288ZM43.1093 8.23007V7.467H43.3682C43.4581 7.467 43.5268 7.47234 43.5638 7.48835C43.6061 7.49902 43.6378 7.5257 43.6589 7.55772C43.6853 7.59507 43.6959 7.63242 43.6959 7.67511C43.6959 7.72847 43.6748 7.7765 43.6378 7.81919C43.5955 7.86187 43.5427 7.88322 43.4792 7.88856C43.5057 7.89923 43.5268 7.91524 43.5426 7.93124C43.5744 7.95792 43.6114 8.01129 43.6536 8.08066L43.7488 8.23007H43.6008L43.5321 8.11267C43.4792 8.01662 43.4369 7.95792 43.4 7.93124C43.3788 7.91524 43.3471 7.90456 43.3048 7.90456H43.2308V8.23007H43.1093ZM43.2308 7.79784H43.3788C43.4528 7.79784 43.5004 7.78717 43.5268 7.76582C43.5532 7.74448 43.5638 7.7178 43.5638 7.68578C43.5638 7.6591 43.5585 7.63776 43.5479 7.62175C43.5321 7.60574 43.5162 7.58973 43.4951 7.5844C43.4739 7.57372 43.4317 7.56839 43.3735 7.56839H43.2308V7.79784Z" fill="#393938"/>
<path d="M7.20044 30.6252V26.7031H9.98568C12.3481 26.7031 13.6535 25.065 13.6535 23.1493C13.6535 21.2123 12.364 19.5901 9.98568 19.5901H4.875V30.6252H7.20044ZM9.67386 24.6381H7.20044V21.6605H9.67386C10.5935 21.6605 11.2805 22.2208 11.2805 23.1493C11.2805 24.0564 10.5935 24.6381 9.67386 24.6381Z" fill="#393938"/>
<path d="M20.2729 30.8234C23.5814 30.8234 25.9914 28.4435 25.9914 25.1191C25.9914 21.7947 23.5814 19.4094 20.2729 19.4094C16.9803 19.4094 14.5703 21.7947 14.5703 25.1191C14.5703 28.4435 16.9803 30.8234 20.2729 30.8234ZM20.2729 28.737C18.254 28.737 16.9645 27.1682 16.9645 25.1191C16.9645 23.0487 18.254 21.4959 20.2729 21.4959C22.2865 21.4959 23.5972 23.0487 23.5972 25.1191C23.5972 27.1682 22.2865 28.737 20.2729 28.737Z" fill="#393938"/>
<path d="M32.9224 30.8234C35.3271 30.8234 36.7065 29.484 37.4887 28.1126L35.4909 27.1361C35.0311 28.0433 34.0534 28.737 32.9224 28.737C30.9405 28.737 29.4977 27.2002 29.4977 25.1191C29.4977 23.0327 30.9405 21.4959 32.9224 21.4959C34.0534 21.4959 35.0311 22.2056 35.4909 23.0967L37.4887 22.1042C36.7224 20.7328 35.3271 19.4094 32.9224 19.4094C29.6456 19.4094 27.1035 21.7253 27.1035 25.1191C27.1035 28.5075 29.6456 30.8234 32.9224 30.8234Z" fill="#393938"/>
<path d="M44.173 30.8234C46.583 30.8234 47.9571 29.484 48.7446 28.1126L46.7468 27.1361C46.287 28.0433 45.304 28.737 44.173 28.737C42.1911 28.737 40.7482 27.2002 40.7482 25.1191C40.7482 23.0327 42.1911 21.4959 44.173 21.4959C45.304 21.4959 46.287 22.2056 46.7468 23.0967L48.7446 22.1042C47.9729 20.7328 46.583 19.4094 44.173 19.4094C40.8962 19.4094 38.3594 21.7253 38.3594 25.1191C38.3594 28.5075 40.8962 30.8234 44.173 30.8234Z" fill="#393938"/>
<path d="M52.379 30.6252L57.5901 23.2293V30.6252H59.9155V19.5901H57.5214L52.4583 26.7192V19.5901H50.1328V30.6252H52.379Z" fill="#393938"/>
<path d="M64.3301 30.6258L69.536 23.2299V30.6258H71.8614V19.5907H69.4725L64.4094 26.7197V19.5907H62.084V30.6258H64.3301ZM69.8478 17.6216L68.9335 16.8479C68.4737 17.4936 67.8024 17.8724 66.9833 17.8724C66.1324 17.8724 65.4559 17.4776 65.0172 16.8479L64.0976 17.6216C64.7688 18.5181 65.8205 19.0784 66.9833 19.0784C68.1618 19.0784 69.1924 18.5181 69.8478 17.6216Z" fill="#393938"/>
<path d="M79.313 30.8234C81.7177 30.8234 83.0971 29.484 83.8846 28.1126L81.8816 27.1361C81.4271 28.0433 80.444 28.737 79.313 28.737C77.3311 28.737 75.8883 27.2002 75.8883 25.1191C75.8883 23.0327 77.3311 21.4959 79.313 21.4959C80.444 21.4959 81.4271 22.2056 81.8816 23.0967L83.8846 22.1042C83.113 20.7328 81.7177 19.4094 79.313 19.4094C76.0363 19.4094 73.4941 21.7253 73.4941 25.1191C73.4941 28.5075 76.0363 30.8234 79.313 30.8234Z" fill="#393938"/>
<path d="M94.628 30.6252L89.993 24.7715L94.3321 19.5901H91.4676L87.5989 24.5207V19.5901H85.2734V30.6252H87.5989V27.2314L88.4498 26.2069L91.7582 30.6252H94.628Z" fill="#393938"/>
<path d="M97.9376 30.6252L103.149 23.2293V30.6252H105.474V19.5901H103.08L98.0221 26.7192V19.5901H95.6914V30.6252H97.9376Z" fill="#393938"/>
<path d="M115.371 30.6252V28.5548H109.964V26.0575H115.254V23.9924H109.964V21.6605H115.371V19.5901H107.639V30.6252H115.371Z" fill="#393938"/>
<path d="M7.83075 5.91403L6.95871 4.41992C7.37623 4.32387 7.80432 3.95034 7.80432 3.25664C7.80432 2.53093 7.31281 1.99731 6.50419 1.99731H4.69141V5.91403H5.51588V4.5213H6.12366L6.88472 5.91403H7.83075ZM6.38263 3.78492H5.51588V2.72836H6.38263C6.71559 2.72836 6.96399 2.93114 6.96399 3.25664C6.96399 3.58748 6.71559 3.78492 6.38263 3.78492Z" fill="#393938"/>
<path d="M9.96432 5.91403C11.1746 5.91403 12.0202 5.13496 12.0202 3.95567C12.0202 2.77639 11.1746 1.99731 9.96432 1.99731H8.43164V5.91403H9.96432ZM9.96432 5.17765H9.25611V2.72836H9.96432C10.7571 2.72836 11.1746 3.26198 11.1746 3.95567C11.1746 4.62269 10.7307 5.17765 9.96432 5.17765Z" fill="#393938"/>
<path d="M14.1368 5.91403C15.3523 5.91403 16.1979 5.13496 16.1979 3.95567C16.1979 2.77639 15.3523 1.99731 14.1368 1.99731H12.6094V5.91403H14.1368ZM14.1368 5.17765H13.4338V2.72836H14.1368C14.9348 2.72836 15.3523 3.26198 15.3523 3.95567C15.3523 4.62269 14.9031 5.17765 14.1368 5.17765Z" fill="#393938"/>
<path d="M18.1646 6.03261L19.5388 1.8811H19.2798L17.9004 6.03261H18.1646Z" fill="#393938"/>
<path d="M24.1977 5.91403L23.0773 4.27051C23.6533 4.24382 24.1554 3.84895 24.1554 3.13925C24.1554 2.4242 23.6428 1.99731 22.9716 1.99731H21.5234V5.91403H21.8564V4.29185H22.7126L23.8013 5.91403H24.1977ZM22.9451 3.98769H21.8564V2.30147H22.9451C23.4578 2.30147 23.8066 2.64832 23.8066 3.13925C23.8066 3.63551 23.4578 3.98769 22.9451 3.98769Z" fill="#393938"/>
<path d="M26.4979 5.9834C27.4967 5.9834 28.0094 5.38042 28.0094 4.40925V1.99731H27.6712V4.40391C27.6712 5.19366 27.2642 5.67924 26.4979 5.67924C25.7368 5.67924 25.3246 5.19366 25.3246 4.40391V1.99731H24.9863V4.40925C24.9863 5.36975 25.5043 5.9834 26.4979 5.9834Z" fill="#393938"/>
<path d="M30.1762 5.98494C31.2226 5.98494 31.5556 5.38196 31.5556 4.87502C31.5556 3.41292 29.2301 3.96254 29.2301 2.95935C29.2301 2.5378 29.6159 2.23897 30.1339 2.23897C30.5725 2.23897 30.9689 2.39372 31.2438 2.7299L31.4657 2.48444C31.1645 2.13759 30.7364 1.93481 30.155 1.93481C29.4521 1.93481 28.8813 2.34036 28.8813 2.9807C28.8813 4.34675 31.2068 3.7491 31.2068 4.89637C31.2068 5.23254 30.9795 5.68078 30.1815 5.68078C29.6318 5.68078 29.2249 5.4033 28.9712 5.10981L28.7598 5.36061C29.0557 5.72347 29.5367 5.98494 30.1762 5.98494Z" fill="#393938"/>
<path d="M33.5473 5.98494C34.5937 5.98494 34.9267 5.38196 34.9267 4.87502C34.9267 3.41292 32.6012 3.96254 32.6012 2.95935C32.6012 2.5378 32.9923 2.23897 33.505 2.23897C33.9436 2.23897 34.34 2.39372 34.6201 2.7299L34.8368 2.48444C34.5356 2.13759 34.1075 1.93481 33.5261 1.93481C32.8232 1.93481 32.2524 2.34036 32.2524 2.9807C32.2524 4.34675 34.5779 3.7491 34.5779 4.89637C34.5779 5.23254 34.3506 5.68078 33.5525 5.68078C33.0029 5.68078 32.5959 5.4033 32.3423 5.10981L32.1309 5.36061C32.4268 5.72347 32.9078 5.98494 33.5473 5.98494Z" fill="#393938"/>
<path d="M36.0562 5.91403V1.99731H35.7285V5.91403H36.0562Z" fill="#393938"/>
<path d="M40.2194 5.91403L38.6286 1.99731H38.2164L36.6309 5.91403H37.0167L37.3972 4.94819H39.4531L39.8336 5.91403H40.2194ZM39.3421 4.64403H37.5082L38.4225 2.35484L39.3421 4.64403Z" fill="#393938"/>
<path d="M43.8822 5.91403V1.99731H43.5493V5.31105L41.1181 1.99731H40.7852V5.91403H41.1128V2.54694L43.5545 5.91403H43.8822Z" fill="#393938"/>
<path d="M6.2343 13.6991C7.582 13.6991 8.42761 12.7279 8.42761 11.5113C8.42761 10.3107 7.582 9.32349 6.2343 9.32349H4.84961V13.6991H6.2343ZM6.2343 13.3576H5.21957V9.665H6.2343C7.38645 9.665 8.03651 10.4868 8.03651 11.5113C8.03651 12.5358 7.38116 13.3576 6.2343 13.3576Z" fill="#393938"/>
<path d="M12.0973 13.6991V13.3576H9.71899V11.6234H12.0497V11.2818H9.71899V9.665H12.0973V9.32349H9.34375V13.6991H12.0973Z" fill="#393938"/>
<path d="M14.3629 13.7787C15.5309 13.7787 15.9008 13.101 15.9008 12.5353C15.9008 10.9025 13.3006 11.5215 13.3006 10.3956C13.3006 9.92598 13.7392 9.5898 14.3153 9.5898C14.8015 9.5898 15.2455 9.76056 15.5573 10.1394L15.8057 9.86728C15.4675 9.47774 14.9865 9.24829 14.3364 9.24829C13.549 9.24829 12.9095 9.70186 12.9095 10.4169C12.9095 11.943 15.5097 11.276 15.5097 12.562C15.5097 12.9356 15.256 13.4372 14.3682 13.4372C13.7498 13.4372 13.2953 13.1277 13.0152 12.7968L12.7773 13.0796C13.105 13.4852 13.6441 13.7787 14.3629 13.7787Z" fill="#393938"/>
<path d="M17.159 13.6991V9.32349H16.7891V13.6991H17.159Z" fill="#393938"/>
<path d="M20.2787 13.784C20.9604 13.784 21.5365 13.4852 21.9223 13.053V11.5268H19.914V11.8577H21.5524V12.9089C21.3093 13.1543 20.8547 13.4425 20.2787 13.4425C19.2587 13.4425 18.4712 12.6421 18.4712 11.5108C18.4712 10.3689 19.2587 9.5898 20.2787 9.5898C20.8283 9.5898 21.3251 9.82993 21.6317 10.1981L21.9065 9.99535C21.5101 9.53644 20.9922 9.24829 20.2787 9.24829C19.0631 9.24829 18.0801 10.1608 18.0801 11.5108C18.0801 12.8662 19.0631 13.784 20.2787 13.784Z" fill="#393938"/>
<path d="M26.3283 13.6991V9.32349H25.9584V13.0268L23.2419 9.32349H22.8613V13.6991H23.2313V9.93714L25.9637 13.6991H26.3283Z" fill="#393938"/>
<path d="M30.4706 13.6991C31.8183 13.6991 32.6639 12.7279 32.6639 11.5113C32.6639 10.3107 31.8183 9.32349 30.4706 9.32349H29.0859V13.6991H30.4706ZM30.4706 13.3576H29.4612V9.665H30.4706C31.6228 9.665 32.2728 10.4868 32.2728 11.5113C32.2728 12.5358 31.6175 13.3576 30.4706 13.3576Z" fill="#393938"/>
<path d="M36.9 13.6991L35.1243 9.32349H34.6645L32.8887 13.6991H33.3168L33.7449 12.6212H36.0386L36.472 13.6991H36.9ZM35.917 12.2797H33.8717L34.8917 9.7237L35.917 12.2797Z" fill="#393938"/>
<path d="M38.7929 13.6991V11.8261L40.5159 9.32349H40.0666L38.6027 11.4739L37.1387 9.32349H36.6895L38.4124 11.8261V13.6991H38.7929Z" fill="#393938"/>
<path d="M42.3629 13.7787C43.5309 13.7787 43.9061 13.101 43.9061 12.5353C43.9061 10.9025 41.3059 11.5215 41.3059 10.3956C41.3059 9.92598 41.7392 9.5898 42.3153 9.5898C42.8068 9.5898 43.2455 9.76056 43.5573 10.1394L43.8057 9.86728C43.4675 9.47774 42.9865 9.24829 42.3364 9.24829C41.549 9.24829 40.9148 9.70186 40.9148 10.4169C40.9148 11.943 43.515 11.276 43.515 12.562C43.515 12.9356 43.2613 13.4372 42.3682 13.4372C41.7498 13.4372 41.2953 13.1277 41.0152 12.7968L40.7773 13.0796C41.1103 13.4852 41.6494 13.7787 42.3629 13.7787Z" fill="#393938"/>
<path d="M7.83075 5.91403L6.95871 4.41992C7.37623 4.32387 7.80432 3.95034 7.80432 3.25664C7.80432 2.53093 7.31281 1.99731 6.50419 1.99731H4.69141V5.91403H5.51588V4.5213H6.12366L6.88472 5.91403H7.83075ZM6.38263 3.78492H5.51588V2.72836H6.38263C6.71559 2.72836 6.96399 2.93114 6.96399 3.25664C6.96399 3.58748 6.71559 3.78492 6.38263 3.78492Z" stroke="#393938" stroke-width="0.32" stroke-miterlimit="22.9256"/>
<path d="M9.96432 5.91403C11.1746 5.91403 12.0202 5.13496 12.0202 3.95567C12.0202 2.77639 11.1746 1.99731 9.96432 1.99731H8.43164V5.91403H9.96432ZM9.96432 5.17765H9.25611V2.72836H9.96432C10.7571 2.72836 11.1746 3.26198 11.1746 3.95567C11.1746 4.62269 10.7307 5.17765 9.96432 5.17765Z" stroke="#393938" stroke-width="0.32" stroke-miterlimit="22.9256"/>
<path d="M14.1368 5.91403C15.3523 5.91403 16.1979 5.13496 16.1979 3.95567C16.1979 2.77639 15.3523 1.99731 14.1368 1.99731H12.6094V5.91403H14.1368ZM14.1368 5.17765H13.4338V2.72836H14.1368C14.9348 2.72836 15.3523 3.26198 15.3523 3.95567C15.3523 4.62269 14.9031 5.17765 14.1368 5.17765Z" stroke="#393938" stroke-width="0.32" stroke-miterlimit="22.9256"/>
<path fill-rule="evenodd" clip-rule="evenodd" d="M7.00294 33.7803H115.046L112.647 38.5081H4.60352L7.00294 33.7803Z" fill="#393938"/>
<path d="M9.90836 37.2067L8.94119 36.1075L9.8238 35.1096H9.59654L8.59766 36.2569V35.1096H8.41797V37.2067H8.59766V36.4757L8.82492 36.2195L9.6811 37.2067H9.90836Z" fill="#FAF6F1"/>
<path d="M11.1663 37.2429C11.7741 37.2429 12.1757 36.7733 12.1757 36.1596C12.1757 35.546 11.7741 35.0764 11.1663 35.0764C10.5585 35.0764 10.1621 35.546 10.1621 36.1596C10.1621 36.7733 10.5585 37.2429 11.1663 37.2429ZM11.1663 37.0775C10.6642 37.0775 10.3471 36.6879 10.3471 36.1596C10.3471 35.626 10.6642 35.2365 11.1663 35.2365C11.6684 35.2365 11.9907 35.626 11.9907 36.1596C11.9907 36.6879 11.6684 37.0775 11.1663 37.0775Z" fill="#FAF6F1"/>
<path d="M14.2926 37.2067V35.1096H14.1129V36.0488H12.7969V35.1096H12.6172V37.2067H12.7969V36.2089H14.1129V37.2067H14.2926Z" fill="#FAF6F1"/>
<path d="M16.4893 37.5909H16.6689V37.0413H16.484V35.1096H16.3043V37.0413H14.9883V35.1096H14.8086V37.2067H16.4893V37.5909Z" fill="#FAF6F1"/>
<path d="M18.3564 37.2065V37.0411H17.2148V36.214H18.33V36.0485H17.2148V35.2748H18.3564V35.1094H17.0352V37.2065H18.3564Z" fill="#FAF6F1"/>
<path d="M20.465 37.2067V35.1096H18.7949V37.2067H18.9693V35.275H20.2853V37.2067H20.465Z" fill="#FAF6F1"/>
<path d="M21.6935 37.2067V35.275H22.37V35.1096H20.832V35.275H21.5138V37.2067H21.6935Z" fill="#FAF6F1"/>
<path d="M22.9184 37.2441C23.1721 37.2441 23.2937 37.1 23.4205 36.8492L24.356 35.1096H24.1499L23.4417 36.465L22.7335 35.1096H22.5273L23.336 36.6304L23.2673 36.7638C23.1404 36.9986 23.0717 37.0786 22.9132 37.0786C22.7863 37.0786 22.6965 37.0146 22.6225 36.9239L22.5273 37.0573C22.6119 37.1747 22.7546 37.2441 22.9184 37.2441Z" fill="#FAF6F1"/>
<path d="M26.3658 37.2067L25.5149 35.1096H25.2929L24.4473 37.2067H24.6481L24.8542 36.6891H25.9535L26.1596 37.2067H26.3658ZM25.8954 36.529H24.9176L25.4039 35.3017L25.8954 36.529Z" fill="#FAF6F1"/>
<path d="M26.5176 37.2441C26.8664 37.2441 27.1042 37.1 27.2258 36.1608L27.3368 35.275H28.1612V37.2067H28.3462V35.1096H27.1782L27.0408 36.1448C26.9457 36.9186 26.7818 37.0786 26.5176 37.0786V37.2441Z" fill="#FAF6F1"/>
<path d="M28.8633 35.1096V37.2067H29.6402C30.0366 37.2067 30.2638 36.9239 30.2638 36.5931C30.2638 36.2622 30.0366 35.9794 29.6402 35.9794H29.0377V35.1096H28.8633ZM29.619 36.1448C29.8939 36.1448 30.0789 36.3316 30.0789 36.5931C30.0789 36.8545 29.8939 37.0413 29.619 37.0413H29.0377V36.1448H29.619Z" fill="#FAF6F1"/>
<path d="M32.316 37.2067V35.1096H32.1363V36.0488H30.8203V35.1096H30.6406V37.2067H30.8203V36.2089H32.1363V37.2067H32.316Z" fill="#FAF6F1"/>
<path d="M34.5337 37.2067L33.6828 35.1096H33.4661L32.6152 37.2067H32.8214L33.0275 36.6891H34.1268L34.3276 37.2067H34.5337ZM34.0633 36.529H33.0856L33.5718 35.3017L34.0633 36.529Z" fill="#FAF6F1"/>
<path d="M34.9608 37.2067L35.5422 36.3369H35.9967V37.2067H36.1764V35.1096H35.3995C35.0454 35.1096 34.7706 35.3391 34.7706 35.7233C34.7706 36.1021 35.0348 36.3156 35.3466 36.3263L34.7441 37.2067H34.9608ZM35.4153 36.1768C35.1405 36.1768 34.9555 35.9847 34.9555 35.7233C34.9555 35.4565 35.1405 35.275 35.4153 35.275H35.9967V36.1768H35.4153Z" fill="#FAF6F1"/>
<path d="M38.3642 37.2067C38.7342 37.2067 38.9614 36.9879 38.9614 36.6411C38.9614 36.3903 38.7765 36.1608 38.5545 36.1235C38.7395 36.0861 38.9192 35.91 38.9192 35.6432C38.9192 35.3124 38.6972 35.1096 38.3484 35.1096H37.4922V37.2067H38.3642ZM38.3272 36.0488H37.6719V35.275H38.3272C38.5915 35.275 38.7342 35.4511 38.7342 35.6646C38.7342 35.878 38.5915 36.0488 38.3272 36.0488ZM38.3378 37.0413H37.6719V36.2142H38.3378C38.6285 36.2142 38.7712 36.4116 38.7712 36.6251C38.7712 36.8812 38.6126 37.0413 38.3378 37.0413Z" fill="#FAF6F1"/>
<path d="M39.4121 35.1096V37.2067H40.189C40.5854 37.2067 40.8127 36.9239 40.8127 36.5931C40.8127 36.2622 40.5854 35.9794 40.189 35.9794H39.5865V35.1096H39.4121ZM40.1732 36.1448C40.4427 36.1448 40.6277 36.3316 40.6277 36.5931C40.6277 36.8545 40.4427 37.0413 40.1732 37.0413H39.5865V36.1448H40.1732ZM41.2407 37.2067V35.1096H41.0663V37.2067H41.2407Z" fill="#FAF6F1"/>
<path d="M42.7236 37.2429C43.0566 37.2429 43.2997 37.0988 43.4794 36.8694L43.3314 36.7733C43.1993 36.9547 42.972 37.0775 42.7236 37.0775C42.2374 37.0775 41.8621 36.6986 41.8621 36.1596C41.8621 35.61 42.2374 35.2365 42.7236 35.2365C42.972 35.2365 43.1993 35.3592 43.3314 35.5407L43.4794 35.4446C43.305 35.2205 43.0566 35.0764 42.7236 35.0764C42.137 35.0764 41.6719 35.514 41.6719 36.1596C41.6719 36.8 42.137 37.2429 42.7236 37.2429Z" fill="#FAF6F1"/>
<path d="M44.5568 37.2067V35.275H45.2333V35.1096H43.6953V35.275H44.3771V37.2067H44.5568Z" fill="#FAF6F1"/>
<path d="M47.3091 37.2067L46.4582 35.1096H46.2415L45.3906 37.2067H45.5967L45.7976 36.6891H46.8969L47.103 37.2067H47.3091ZM46.8387 36.529H45.861L46.3472 35.3017L46.8387 36.529Z" fill="#FAF6F1"/>
<path d="M48.4834 37.2067C48.8533 37.2067 49.0753 36.9879 49.0753 36.6411C49.0753 36.3903 48.8903 36.1608 48.6736 36.1235C48.8586 36.0861 49.0383 35.91 49.0383 35.6432C49.0383 35.3124 48.811 35.1096 48.4622 35.1096H47.6113V37.2067H48.4834ZM48.4411 36.0488H47.7857V35.275H48.4411C48.7106 35.275 48.848 35.4511 48.848 35.6646C48.848 35.878 48.7106 36.0488 48.4411 36.0488ZM48.4517 37.0413H47.7857V36.2142H48.4517C48.7423 36.2142 48.8903 36.4116 48.8903 36.6251C48.8903 36.8812 48.7265 37.0413 48.4517 37.0413Z" fill="#FAF6F1"/>
<path d="M51.0119 37.2067L50.0447 36.1075L50.9326 35.1096H50.7053L49.7012 36.2569V35.1096H49.5215V37.2067H49.7012V36.4757L49.9337 36.2195L50.7846 37.2067H51.0119Z" fill="#FAF6F1"/>
<path d="M53.0566 37.2065L52.2057 35.1094H51.9837L51.1328 37.2065H51.3389L51.545 36.6889H52.6443L52.8505 37.2065H53.0566ZM52.5862 36.5288H51.6032L52.0947 35.3015L52.5862 36.5288Z" fill="#FAF6F1"/>
<path d="M55.0381 37.2067C55.408 37.2067 55.63 36.9879 55.63 36.6411C55.63 36.3903 55.4503 36.1608 55.2283 36.1235C55.4133 36.0861 55.593 35.91 55.593 35.6432C55.593 35.3124 55.3657 35.1096 55.0169 35.1096H54.166V37.2067H55.0381ZM54.9958 36.0488H54.3457V35.275H54.9958C55.2653 35.275 55.4027 35.4511 55.4027 35.6646C55.4027 35.878 55.2653 36.0488 54.9958 36.0488ZM55.0116 37.0413H54.3457V36.2142H55.0116C55.297 36.2142 55.445 36.4116 55.445 36.6251C55.445 36.8812 55.2812 37.0413 55.0116 37.0413Z" fill="#FAF6F1"/>
<path d="M57.8102 37.2429C58.418 37.2429 58.8197 36.7733 58.8197 36.1596C58.8197 35.546 58.418 35.0764 57.8102 35.0764C57.2024 35.0764 56.8008 35.546 56.8008 36.1596C56.8008 36.7733 57.2024 37.2429 57.8102 37.2429ZM57.8102 37.0775C57.3081 37.0775 56.991 36.6879 56.991 36.1596C56.991 35.626 57.3081 35.2365 57.8102 35.2365C58.307 35.2365 58.6347 35.626 58.6347 36.1596C58.6347 36.6879 58.307 37.0775 57.8102 37.0775Z" fill="#FAF6F1"/>
<path d="M59.2598 35.1094V37.2065H60.0367C60.4383 37.2065 60.6656 36.9237 60.6656 36.5928C60.6656 36.262 60.4331 35.9792 60.0367 35.9792H59.4395V35.2748H60.5546V35.1094H59.2598ZM60.0208 36.1446C60.2956 36.1446 60.4753 36.3313 60.4753 36.5928C60.4753 36.8543 60.2956 37.0411 60.0208 37.0411H59.4395V36.1446H60.0208Z" fill="#FAF6F1"/>
<path d="M60.8906 37.2441C61.2342 37.2441 61.472 37.1 61.5935 36.1608L61.7045 35.275H62.5343V37.2067H62.714V35.1096H61.546L61.4138 36.1448C61.3134 36.9186 61.1549 37.0786 60.8906 37.0786V37.2441Z" fill="#FAF6F1"/>
<path d="M64.9394 37.2067L64.0885 35.1096H63.8665L63.0156 37.2067H63.2217L63.4279 36.6891H64.5272L64.7333 37.2067H64.9394ZM64.469 36.529H63.486L63.9775 35.3017L64.469 36.529Z" fill="#FAF6F1"/>
<path d="M66.2217 37.2429C66.5493 37.2429 66.7924 37.0988 66.9774 36.8694L66.8294 36.7733C66.6973 36.9547 66.4701 37.0775 66.2217 37.0775C65.7301 37.0775 65.3549 36.6986 65.3549 36.1596C65.3549 35.61 65.7301 35.2365 66.2217 35.2365C66.4701 35.2365 66.6973 35.3592 66.8294 35.5407L66.9774 35.4446C66.7977 35.2205 66.5493 35.0764 66.2217 35.0764C65.6297 35.0764 65.1699 35.514 65.1699 36.1596C65.1699 36.8 65.6297 37.2429 66.2217 37.2429Z" fill="#FAF6F1"/>
<path d="M68.0417 37.2067V35.275H68.7235V35.1096H67.1855V35.275H67.862V37.2067H68.0417Z" fill="#FAF6F1"/>
<path d="M69.2564 37.2067L70.5671 35.4031V37.2067H70.7415V35.1096H70.5619L69.2617 36.8865V35.1096H69.082V37.2067H69.2564Z" fill="#FAF6F1"/>
<path d="M71.918 37.5909H72.0977V37.2067H73.7466V37.5909H73.9263V37.0413H73.7413V35.1096H72.5733L72.4412 36.1448C72.3408 36.9186 72.1822 37.0466 71.918 37.052V37.5909ZM72.6209 36.1608L72.7319 35.275H73.5616V37.0413H72.2668C72.4306 36.9346 72.5522 36.6891 72.6209 36.1608Z" fill="#FAF6F1"/>
<path d="M74.4791 37.2067L75.7845 35.4031V37.2067H75.9642V35.1096H75.7792L74.4791 36.8865V35.1096H74.3047V37.2067H74.4791Z" fill="#FAF6F1"/>
<path d="M77.0761 37.2429C77.5359 37.2429 77.8213 36.9868 77.8213 36.6399C77.8213 36.2984 77.5253 36.1383 77.3403 36.1223C77.52 36.0903 77.7896 35.9515 77.7896 35.6314C77.7896 35.2739 77.4566 35.0764 77.0814 35.0764C76.7643 35.0764 76.5159 35.2152 76.3626 35.3966L76.4736 35.5086C76.6374 35.3326 76.8171 35.2418 77.0708 35.2418C77.3562 35.2418 77.5993 35.3859 77.5993 35.6474C77.5993 35.9249 77.3509 36.0476 77.0708 36.0476H76.6374V36.2077H77.0708C77.3879 36.2077 77.6363 36.3304 77.6363 36.6346C77.6363 36.9067 77.4196 37.0775 77.0761 37.0775C76.7907 37.0775 76.5634 36.9547 76.4419 36.784L76.3203 36.896C76.4472 37.0828 76.7167 37.2429 77.0761 37.2429Z" fill="#FAF6F1"/>
<path d="M79.9712 37.2067L79.1203 35.1096H78.8984L78.0527 37.2067H78.2589L78.4597 36.6891H79.559L79.7651 37.2067H79.9712ZM79.5009 36.529H78.5231L79.0093 35.3017L79.5009 36.529Z" fill="#FAF6F1"/>
<path d="M80.4537 37.207L81.7591 35.4033V37.207H81.9388V35.1099H81.7538L80.4537 36.8868V35.1099H80.2793V37.207H80.4537ZM81.6534 34.7043L81.5689 34.6243C81.4631 34.7683 81.2993 34.8644 81.1091 34.8644C80.9135 34.8644 80.755 34.7683 80.6493 34.6243L80.5594 34.7043C80.6862 34.8751 80.8871 34.9818 81.1091 34.9818C81.331 34.9818 81.5266 34.8751 81.6534 34.7043Z" fill="#FAF6F1"/>
<path d="M84.1207 37.2067V35.1096H83.941V36.0488H82.625V35.1096H82.4453V37.2067H82.625V36.2089H83.941V37.2067H84.1207Z" fill="#FAF6F1"/>
<path d="M86.3515 37.2065L85.5006 35.1094H85.2786L84.4277 37.2065H84.6339L84.84 36.6889H85.9393L86.1454 37.2065H86.3515ZM85.8811 36.5288H84.8981L85.3896 35.3015L85.8811 36.5288Z" fill="#FAF6F1"/>
<path d="M87.6353 37.2067L88.9408 35.4031V37.2067H89.1205V35.1096H88.9408L87.6353 36.8865V35.1096H87.4609V37.2067H87.6353Z" fill="#FAF6F1"/>
<path d="M92.147 37.2067L91.3014 35.1096H91.0794L90.2285 37.2067H90.4346L90.6408 36.6891H91.7401L91.9462 37.2067H92.147ZM91.6766 36.529H90.6989L91.1851 35.3017L91.6766 36.529Z" fill="#FAF6F1"/>
<path d="M92.6309 37.2067V36.3369H93.2281C93.6245 36.3369 93.857 36.0541 93.857 35.7233C93.857 35.3924 93.6297 35.1096 93.2281 35.1096H92.4512V37.2067H92.6309ZM93.2122 36.1715H92.6309V35.275H93.2122C93.4871 35.275 93.6667 35.4565 93.6667 35.7233C93.6667 35.9847 93.4871 36.1715 93.2122 36.1715Z" fill="#FAF6F1"/>
<path d="M95.9194 37.2067L95.0844 36.1288L95.8718 35.1096H95.6499L94.9734 36.0008L94.3022 35.1096H94.0749L94.8677 36.1288L94.0273 37.2067H94.2546L94.9734 36.2622L95.6974 37.2067H95.9194Z" fill="#FAF6F1"/>
<path d="M96.4068 37.2067L97.7175 35.4031V37.2067H97.8919V35.1096H97.7122L96.4121 36.8865V35.1096H96.2324V37.2067H96.4068Z" fill="#FAF6F1"/>
<path d="M99.1199 37.2067V35.275H99.8016V35.1096H98.2637V35.275H98.9402V37.2067H99.1199Z" fill="#FAF6F1"/>
<path d="M101.488 37.2067V37.0413H100.352V36.2142H101.467V36.0488H100.352V35.275H101.488V35.1096H100.172V37.2067H101.488Z" fill="#FAF6F1"/>
<path d="M103.414 37.2065L102.447 36.1072L103.33 35.1094H103.102L102.104 36.2566V35.1094H101.924V37.2065H102.104V36.4754L102.331 36.2193L103.187 37.2065H103.414Z" fill="#FAF6F1"/>
<path d="M104.459 37.2067V35.275H105.136V35.1096H103.598V35.275H104.274V37.2067H104.459Z" fill="#FAF6F1"/>
<path d="M105.687 37.2438C105.936 37.2438 106.057 37.0997 106.189 36.849L107.125 35.1094H106.919L106.205 36.4647L105.497 35.1094H105.291L106.105 36.6302L106.031 36.7636C105.909 36.9984 105.835 37.0784 105.677 37.0784C105.55 37.0784 105.46 37.0144 105.391 36.9237L105.291 37.0571C105.376 37.1745 105.518 37.2438 105.687 37.2438Z" fill="#FAF6F1"/>
<path d="M107.609 37.2067V36.3369H108.212C108.603 36.3369 108.836 36.0541 108.836 35.7233C108.836 35.3924 108.608 35.1096 108.212 35.1096H107.43V37.2067H107.609ZM108.191 36.1715H107.609V35.275H108.191C108.466 35.275 108.651 35.4565 108.651 35.7233C108.651 35.9847 108.466 36.1715 108.191 36.1715Z" fill="#FAF6F1"/>
<path d="M109.207 35.1096V37.2067H109.984C110.38 37.2067 110.608 36.9239 110.608 36.5931C110.608 36.2622 110.38 35.9794 109.984 35.9794H109.381V35.1096H109.207ZM109.963 36.1448C110.238 36.1448 110.423 36.3316 110.423 36.5931C110.423 36.8545 110.238 37.0413 109.963 37.0413H109.381V36.1448H109.963ZM111.036 37.2067V35.1096H110.856V37.2067H111.036Z" fill="#FAF6F1"/>
<path d="M78.032 13.2454V9.46209H82.2865V8.83776H78.032V5.88688H82.371V5.26255H77.3555V13.2454H78.032ZM87.3284 13.3895C89.638 13.3895 91.1654 11.5912 91.1654 9.25932C91.1654 6.92743 89.638 5.12915 87.3284 5.12915C85.003 5.12915 83.4862 6.92743 83.4862 9.25932C83.4862 11.5912 85.003 13.3895 87.3284 13.3895ZM87.3284 12.7652C85.4047 12.7652 84.1944 11.271 84.1944 9.25932C84.1944 7.22625 85.4047 5.75348 87.3284 5.75348C89.2205 5.75348 90.4572 7.22625 90.4572 9.25932C90.4572 11.271 89.2205 12.7652 87.3284 12.7652ZM98.2897 13.2454L96.0013 9.89431C97.1745 9.84629 98.1946 9.04587 98.1946 7.59444C98.1946 6.13768 97.1534 5.26255 95.7898 5.26255H92.8355V13.2454H93.512V9.94234H95.2561L97.4705 13.2454H98.2897ZM95.7317 9.31801H93.512V5.88688H95.7317C96.7729 5.88688 97.4864 6.59125 97.4864 7.59444C97.4864 8.60297 96.7729 9.31801 95.7317 9.31801ZM102.962 13.3895C104.996 13.3895 106.043 12.1568 106.043 10.1825V5.26255H105.356V10.1665C105.356 11.7833 104.526 12.7652 102.962 12.7652C101.408 12.7652 100.568 11.7833 100.568 10.1665V5.26255H99.8805V10.1825C99.8805 12.1408 100.932 13.3895 102.962 13.3895ZM115.408 13.2454V5.26255H114.388L111.709 11.842L109.018 5.26255H108.009V13.2454H108.685V6.19638L111.576 13.2454H111.835L114.716 6.19638V13.2454H115.408Z" fill="#393938"/>
<path d="M79.4232 4.09514L78.53 1.88599H78.2975L77.4043 4.09514H77.621L77.8377 3.55086H78.9898L79.2065 4.09514H79.4232ZM78.9264 3.3801H77.8958L78.4137 2.08876L78.9264 3.3801Z" fill="#393938"/>
<path d="M81.2484 4.09514L80.6142 3.16666C80.9366 3.15599 81.222 2.93187 81.222 2.53166C81.222 2.13145 80.9313 1.88599 80.5561 1.88599H79.7422V4.09514H79.9272V3.18267H80.4081L81.0212 4.09514H81.2484ZM80.5402 3.00657H79.9272V2.06208H80.5402C80.8256 2.06208 81.0212 2.25418 81.0212 2.53166C81.0212 2.80914 80.8256 3.00657 80.5402 3.00657Z" fill="#393938"/>
<path d="M82.7042 4.13229C83.053 4.13229 83.3067 3.98288 83.5022 3.73741L83.3437 3.64136C83.2063 3.83346 82.9684 3.96153 82.7042 3.96153C82.1915 3.96153 81.7952 3.56132 81.7952 2.99036C81.7952 2.41939 82.1915 2.02452 82.7042 2.02452C82.9684 2.02452 83.2063 2.15258 83.3437 2.34468L83.5022 2.2433C83.3173 2.00851 83.053 1.85376 82.7042 1.85376C82.0858 1.85376 81.5996 2.31267 81.5996 2.99036C81.5996 3.66804 82.0858 4.13229 82.7042 4.13229Z" fill="#393938"/>
<path d="M85.6447 4.09514V1.88599H85.4544V2.87317H84.0697V1.88599H83.8848V4.09514H84.0697V3.04393H85.4544V4.09514H85.6447Z" fill="#393938"/>
<path d="M86.3778 4.09514V1.88599H86.1875V4.09514H86.3778Z" fill="#393938"/>
<path d="M87.6616 4.09514V2.06208H88.375V1.88599H86.7578V2.06208H87.4713V4.09514H87.6616Z" fill="#393938"/>
<path d="M90.1464 4.09514V3.91905H88.9467V3.04926H90.12V2.87851H88.9467V2.06208H90.1464V1.88599H88.7617V4.09514H90.1464Z" fill="#393938"/>
<path d="M91.6358 4.13229C91.9846 4.13229 92.2383 3.98288 92.4339 3.73741L92.2753 3.64136C92.1379 3.83346 91.9001 3.96153 91.6358 3.96153C91.1232 3.96153 90.7268 3.56132 90.7268 2.99036C90.7268 2.41939 91.1232 2.02452 91.6358 2.02452C91.9001 2.02452 92.1379 2.15258 92.2753 2.34468L92.4339 2.2433C92.2436 2.00851 91.9846 1.85376 91.6358 1.85376C91.0175 1.85376 90.5312 2.31267 90.5312 2.99036C90.5312 3.66804 91.0175 4.13229 91.6358 4.13229Z" fill="#393938"/>
<path d="M93.5541 4.09514V2.06208H94.2676V1.88599H92.6504V2.06208H93.3639V4.09514H93.5541Z" fill="#393938"/>
<path d="M95.5052 4.13225C96.0654 4.13225 96.3561 3.79074 96.3561 3.24646V1.88574H96.1658V3.24112C96.1658 3.68935 95.9386 3.9615 95.5052 3.9615C95.0771 3.9615 94.8446 3.68935 94.8446 3.24112V1.88574H94.6543V3.24646C94.6543 3.79074 94.945 4.13225 95.5052 4.13225Z" fill="#393938"/>
<path d="M98.4066 4.0949L97.7724 3.16641C98.0948 3.15574 98.3802 2.93162 98.3802 2.53141C98.3802 2.1312 98.0895 1.88574 97.7143 1.88574H96.9004V4.0949H97.0854V3.18242H97.5663L98.1794 4.0949H98.4066ZM97.6984 3.00633H97.0854V2.06183H97.6984C97.9838 2.06183 98.1794 2.25393 98.1794 2.53141C98.1794 2.80889 97.9838 3.00633 97.6984 3.00633Z" fill="#393938"/>
<path d="M100.234 4.0949V3.91881H99.0346V3.04902H100.208V2.87826H99.0346V2.06183H100.234V1.88574H98.8496V4.0949H100.234Z" fill="#393938"/>
<path d="M103.24 4.09493C103.082 3.94552 102.944 3.82279 102.817 3.68939C102.949 3.49729 103.034 3.27851 103.103 3.10241L102.949 3.03304C102.912 3.15578 102.828 3.37456 102.701 3.57199C102.606 3.47061 102.511 3.36388 102.41 3.24649C102.331 3.15578 102.22 3.03304 102.125 2.89964C102.41 2.75023 102.691 2.60082 102.691 2.26998C102.691 2.00317 102.5 1.85376 102.236 1.85376C101.945 1.85376 101.713 2.0672 101.713 2.35536C101.713 2.51544 101.787 2.69153 101.892 2.86229C101.639 3.00636 101.406 3.18246 101.406 3.5293C101.406 3.92951 101.702 4.13229 102.062 4.13229C102.342 4.13229 102.548 4.00956 102.706 3.82813C102.807 3.92951 102.907 4.02556 102.986 4.09493H103.24ZM102.077 3.98288C101.824 3.98288 101.597 3.82279 101.597 3.51863C101.597 3.2625 101.766 3.11309 101.977 2.99036C102.067 3.12376 102.173 3.24649 102.268 3.35855C102.331 3.43859 102.458 3.57199 102.595 3.71073C102.458 3.87082 102.289 3.98288 102.077 3.98288ZM101.898 2.36069C101.898 2.14725 102.051 2.00317 102.236 2.00317C102.4 2.00317 102.521 2.09389 102.521 2.28065C102.521 2.52611 102.294 2.64884 102.046 2.78225C101.961 2.63817 101.898 2.48876 101.898 2.36069Z" fill="#393938"/>
<path d="M105.182 4.09514C105.859 4.09514 106.281 3.60422 106.281 2.99057C106.281 2.38758 105.859 1.88599 105.182 1.88599H104.484V4.09514H105.182ZM105.182 3.91905H104.669V2.06208H105.182C105.758 2.06208 106.086 2.4783 106.086 2.99057C106.086 3.50817 105.758 3.91905 105.182 3.91905Z" fill="#393938"/>
<path d="M108.131 4.09514V3.91905H106.936V3.04926H108.11V2.87851H106.936V2.06208H108.131V1.88599H106.746V4.09514H108.131Z" fill="#393938"/>
<path d="M109.269 4.13229C109.855 4.13229 110.046 3.79077 110.046 3.50796C110.046 2.6862 108.735 2.99569 108.735 2.43006C108.735 2.18994 108.952 2.02452 109.248 2.02452C109.491 2.02452 109.713 2.10989 109.871 2.30199L109.993 2.16326C109.824 1.96582 109.581 1.85376 109.253 1.85376C108.857 1.85376 108.539 2.07788 108.539 2.44073C108.539 3.20914 109.845 2.87296 109.845 3.51863C109.845 3.71073 109.718 3.96153 109.269 3.96153C108.962 3.96153 108.73 3.80678 108.592 3.64136L108.471 3.7801C108.635 3.98821 108.909 4.13229 109.269 4.13229Z" fill="#393938"/>
<path d="M110.679 4.09514V1.88599H110.494V4.09514H110.679Z" fill="#393938"/>
<path d="M112.249 4.13762C112.592 4.13762 112.883 3.98821 113.073 3.76943V3.00103H112.064V3.16645H112.888V3.69472C112.766 3.81746 112.539 3.96153 112.249 3.96153C111.731 3.96153 111.334 3.56132 111.334 2.99036C111.334 2.41939 111.731 2.02452 112.249 2.02452C112.523 2.02452 112.772 2.14725 112.925 2.32868L113.068 2.22729C112.867 1.99784 112.608 1.85376 112.249 1.85376C111.635 1.85376 111.139 2.31267 111.139 2.99036C111.139 3.67338 111.635 4.13762 112.249 4.13762Z" fill="#393938"/>
<path d="M115.297 4.09514V1.88599H115.112V3.75363L113.743 1.88599H113.553V4.09514H113.738V2.20082L115.117 4.09514H115.297Z" fill="#393938"/>
</svg>
