<svg width="56" height="56" viewBox="0 0 56 56" fill="none" xmlns="http://www.w3.org/2000/svg">
<g clip-path="url(#clip0_799_27048)">
<path d="M49.1672 20.1719L28.2942 10.0953C28.2029 10.0512 28.1029 10.0283 28.0015 10.0283C27.9001 10.0283 27.8 10.0512 27.7087 10.0953L6.83569 20.1719C6.72164 20.2269 6.62544 20.313 6.55811 20.4203C6.49079 20.5276 6.45508 20.6516 6.45508 20.7783V45.25C6.45508 45.3767 6.49079 45.5008 6.55811 45.608C6.62544 45.7153 6.72164 45.8014 6.83569 45.8565L27.7086 55.9331C27.8 55.9771 27.9 56 28.0014 56C28.1028 56 28.2029 55.9771 28.2942 55.9331L49.1672 45.8565C49.2812 45.8014 49.3774 45.7153 49.4447 45.608C49.5121 45.5008 49.5478 45.3767 49.5478 45.25V20.7784C49.5478 20.6517 49.5121 20.5276 49.4447 20.4203C49.3774 20.3131 49.2812 20.2269 49.1672 20.1719ZM28.0014 11.4495L47.3254 20.7783L41.7238 23.4825C41.6883 23.4548 41.6501 23.4307 41.6098 23.4107L22.417 14.1454L28.0014 11.4495ZM20.8962 14.9068L40.1921 24.222L36.2401 26.1299L16.9522 16.8185L20.8962 14.9068ZM40.6436 25.4995V32.5521L36.9521 34.3342V27.2817L40.6436 25.4995ZM48.201 44.8275L28.6748 54.2537V31.2775L33.3324 29.029C33.4121 28.9906 33.4834 28.9368 33.5422 28.8708C33.6011 28.8048 33.6464 28.7279 33.6755 28.6444C33.7046 28.5609 33.717 28.4725 33.712 28.3842C33.7069 28.2959 33.6845 28.2094 33.6461 28.1298C33.6076 28.0502 33.5539 27.9789 33.4879 27.92C33.4219 27.8612 33.3449 27.8159 33.2614 27.7867C33.1779 27.7576 33.0895 27.7452 33.0012 27.7503C32.9129 27.7553 32.8265 27.7777 32.7468 27.8162L28.0014 30.1071L26.1342 29.2056C26.0546 29.1672 25.9681 29.1448 25.8798 29.1397C25.7915 29.1346 25.7031 29.147 25.6196 29.1762C25.5361 29.2053 25.4591 29.2506 25.3931 29.3094C25.3271 29.3683 25.2734 29.4396 25.235 29.5193C25.1965 29.5989 25.1741 29.6853 25.1691 29.7736C25.164 29.8619 25.1764 29.9503 25.2055 30.0338C25.2347 30.1173 25.2799 30.1943 25.3388 30.2603C25.3977 30.3263 25.469 30.3801 25.5486 30.4185L27.328 31.2775V54.2537L7.8019 44.8273V21.8512L22.6709 29.0293C22.762 29.0735 22.8619 29.0964 22.9631 29.0965C23.1157 29.0967 23.2639 29.045 23.3833 28.95C23.5027 28.8549 23.5863 28.7222 23.6204 28.5734C23.6545 28.4247 23.637 28.2688 23.5709 28.1312C23.5047 27.9937 23.3938 27.8827 23.2564 27.8164L8.67743 20.7783L15.3671 17.5488L35.5959 27.3144C35.5989 27.3186 35.6022 27.3222 35.6053 27.3263V35.4072C35.6053 35.5211 35.6343 35.6332 35.6895 35.733C35.7446 35.8327 35.8242 35.9168 35.9208 35.9774C36.0173 36.038 36.1276 36.0731 36.2414 36.0794C36.3553 36.0858 36.4688 36.0631 36.5715 36.0136L41.6098 33.5813C41.7238 33.5263 41.82 33.4401 41.8874 33.3329C41.9547 33.2256 41.9904 33.1015 41.9904 32.9749V24.8495L48.201 21.8513V44.8275Z" fill="#232323"/>
<path d="M13.3614 42.2161L10.2982 40.7374C10.1374 40.6597 9.95232 40.6491 9.78368 40.708C9.61504 40.7668 9.47667 40.8902 9.39902 41.051C9.32136 41.2118 9.31078 41.3969 9.3696 41.5656C9.42841 41.7342 9.55181 41.8726 9.71265 41.9502L12.7758 43.429C12.8669 43.4731 12.9668 43.4961 13.068 43.4961C13.1948 43.4962 13.319 43.4605 13.4263 43.3931C13.5337 43.3258 13.6198 43.2295 13.6749 43.1153C13.7134 43.0357 13.7358 42.9493 13.7409 42.861C13.7459 42.7727 13.7335 42.6843 13.7044 42.6008C13.6753 42.5173 13.63 42.4403 13.5712 42.3743C13.5123 42.3083 13.441 42.2546 13.3614 42.2161ZM16.1805 40.3811L10.3025 37.5434C10.142 37.4687 9.95859 37.4602 9.79187 37.5196C9.62516 37.5791 9.48856 37.7018 9.41161 37.8612C9.33466 38.0206 9.32356 38.2039 9.3807 38.3714C9.43785 38.5389 9.55864 38.6772 9.71696 38.7564L15.595 41.5941C15.6861 41.6382 15.786 41.6611 15.8872 41.6612C16.0399 41.6614 16.188 41.6098 16.3075 41.5148C16.4269 41.4197 16.5106 41.287 16.5446 41.1382C16.5787 40.9894 16.5613 40.8334 16.4951 40.6959C16.4289 40.5583 16.318 40.4473 16.1805 40.3811Z" fill="#232323"/>
</g>
<defs>
<clipPath id="clip0_799_27048">
<rect width="56" height="56" fill="white"/>
</clipPath>
</defs>
</svg>
