<svg width="56" height="56" viewBox="0 0 56 56" fill="none" xmlns="http://www.w3.org/2000/svg">
<path fill-rule="evenodd" clip-rule="evenodd" d="M42.7659 38.1598L42.7681 38.1605C46.8983 39.5902 49.6032 43.4833 49.6835 47.8594V55.3559H6.40625V47.8577C6.40625 43.4846 9.10949 39.5892 13.2438 38.0784L20.4412 35.4905C21.0874 35.3574 21.8193 34.9552 22.3894 34.4784C22.6781 34.237 22.9325 33.9705 23.1164 33.7008C23.298 33.4344 23.4234 33.1464 23.4234 32.8664V31.3197L23.3583 31.2602C20.565 28.7063 18.6345 24.2147 17.991 20.5953L17.9589 20.4145L17.776 20.4311L17.7741 20.4313L17.7626 20.432C17.7518 20.4326 17.7352 20.4334 17.7134 20.4338C17.6699 20.4347 17.6063 20.4341 17.5293 20.4283C17.3741 20.4167 17.1702 20.3841 16.9669 20.3028C16.7645 20.2218 16.5669 20.0943 16.4151 19.8941C16.2647 19.6958 16.1496 19.4133 16.1303 19.005V18.1993C16.1303 17.3981 16.7185 16.7215 17.1252 16.3149L17.168 16.272L17.1799 16.2127C17.8192 13.016 19.5768 10.1437 22.046 8.3117L22.0468 8.31108C22.3993 8.04672 22.7393 7.61787 22.9897 7.20054L22.9936 7.19396L22.9971 7.18709C23.3674 6.44649 23.8746 6.22721 24.3372 6.07283C26.7289 5.35593 29.2798 5.35593 31.6715 6.07283C32.1341 6.22721 32.6413 6.44649 33.0116 7.18709C33.2651 7.69401 33.6073 8.12617 33.9619 8.39212L33.9627 8.39274C36.4329 10.2254 38.1895 13.0171 38.8287 16.2928L38.8404 16.3527L38.8835 16.3959C39.0405 16.5529 39.2923 16.8245 39.5039 17.1611C39.7167 17.4997 39.8784 17.8875 39.8784 18.2803V19.0814C39.8399 19.4893 39.7157 19.7733 39.5607 19.9735C39.404 20.1759 39.2072 20.3037 39.01 20.3844C38.8117 20.4655 38.6156 20.4978 38.4675 20.5094C38.3939 20.5152 38.3334 20.5157 38.2921 20.5149C38.2715 20.5144 38.2558 20.5137 38.2458 20.5131L38.2351 20.5123L38.2331 20.5122L38.05 20.4947L38.0177 20.6763C37.3742 24.2958 35.4437 28.7873 32.6504 31.3412L32.5854 31.4007V32.9474C32.5854 33.23 32.718 33.5192 32.9057 33.7846C33.096 34.0538 33.3579 34.3198 33.6511 34.5606C34.2297 35.0359 34.9607 35.4378 35.5662 35.5711L42.7659 38.1598ZM14.0286 47.9818V54.1352H41.7801V53.9352H41.8991V47.9818H14.0286ZM16.4596 38.2348V46.7611H18.4803V37.5276L16.4596 38.2348ZM37.5284 37.5276V46.7611H39.5491V38.2348L37.5284 37.5276ZM37.0027 14.4384C36.4054 12.9349 35.2935 11.0202 33.236 9.37374C32.7701 8.98511 32.3 8.43772 31.9067 7.72982L31.9028 7.72274L31.8983 7.71601C31.8168 7.59366 31.743 7.49202 31.6494 7.41174C31.5514 7.32775 31.4437 7.27675 31.309 7.23186L31.3007 7.22947C30.1476 6.90003 27.2678 6.40413 24.6223 7.23085L24.6187 7.23204C24.4949 7.27331 24.3669 7.32201 24.2581 7.40359C24.1447 7.48861 24.062 7.60145 24.0093 7.75402C23.7 8.44587 23.2384 8.98273 22.7016 9.36615C20.7954 10.7336 19.6826 12.6761 19.0467 14.2658C18.7283 15.0618 18.528 15.7731 18.4072 16.2858C18.3468 16.5423 18.3062 16.7495 18.2806 16.8931C18.2709 16.9477 18.2633 16.9931 18.2577 17.0286L18.0881 17.1412L18.0793 17.1479C17.9011 17.2815 17.7064 17.4769 17.5552 17.6713C17.4793 17.7689 17.4109 17.8706 17.3605 17.9684C17.3424 18.0036 17.3251 18.0412 17.3104 18.0803H17.1889V19.2907H38.6577V18.2803C38.6577 18.1717 38.615 18.0614 38.5677 17.9682C38.5179 17.87 38.4502 17.7666 38.3756 17.6653C38.2262 17.4625 38.0367 17.2523 37.8698 17.0855L37.8558 17.0714L37.6747 16.9507C37.6714 16.922 37.6671 16.8874 37.6617 16.8471C37.6443 16.7191 37.6151 16.5341 37.5672 16.3026C37.4715 15.8397 37.3013 15.1902 37.0027 14.4384ZM36.8371 20.5113H19.0898L19.1376 20.7506C19.6288 23.2067 20.7734 26.0479 22.3088 28.2896C23.8363 30.5197 25.7913 32.2135 27.9193 32.2561H27.9233C30.0931 32.2561 32.0698 30.5823 33.6084 28.3509C35.1545 26.1085 36.2991 23.2465 36.7902 20.7499L36.8371 20.5113ZM31.4457 32.8664V32.2654L31.1409 32.453C30.1147 33.0844 29.0972 33.3957 28.0044 33.3957C26.9072 33.3957 25.8073 33.0819 24.8638 32.5316L24.563 32.3561V32.9474C24.563 33.6839 24.1155 34.5249 23.4146 35.1479L23.2561 35.2889L25.0043 37.0371H31.0044L32.7441 35.2974L32.6026 35.156C31.8903 34.4437 31.4457 33.6814 31.4457 32.8664ZM24.5217 38.2577L22.2764 36.0125L22.14 36.1034C22.0347 36.1737 21.8417 36.2689 21.5985 36.3753C21.3593 36.4799 21.0838 36.5901 20.8218 36.6909C20.5601 36.7916 20.3133 36.8822 20.1319 36.9478C20.0412 36.9805 19.9669 37.007 19.9153 37.0252L19.8559 37.0461L19.8365 37.0529L19.8353 37.0533L19.701 37.1V46.6801H36.3077V37.013L36.1659 36.9698L36.1648 36.9695L36.1609 36.9683L36.1455 36.9636L36.0861 36.9452C36.0346 36.9292 35.9604 36.9059 35.8698 36.877C35.6885 36.8191 35.4419 36.7386 35.1805 36.6481C34.9188 36.5575 34.6439 36.4575 34.4053 36.3606C34.1623 36.2618 33.9717 36.172 33.8687 36.1034L33.7323 36.0125L31.487 38.2577H24.5217ZM7.62693 47.8577C7.62693 44.0475 10.0285 40.5664 13.677 39.3222L15.32 38.7423V46.8422H12.889V54.2162H7.62693V47.8577ZM43.1198 54.1352H48.3818V47.7766C48.3818 43.9633 45.9776 40.5669 42.3347 39.2422L42.3329 39.2415L40.6887 38.6613V46.7611H43.1198V54.1352Z" fill="#232323"/>
</svg>
