<svg width="94" height="50" viewBox="0 0 94 50" fill="none" xmlns="http://www.w3.org/2000/svg"
    preserveAspectRatio="none">
    <path
        d="M88.3217 3.31881C87.7517 3.23354 80.5216 2.1552 75.8017 1.61202C70.189 0.966101 67.0371 0.575821 61.394 0.302235C55.8528 0.033589 47.1886 0 47.1886 0L32.7801 0.302235C32.7801 0.302235 23.9852 0.966101 18.3725 1.61202C13.4562 2.1778 8.78948 2.91879 5.8166 3.32418C2.84373 3.72958 0.618072 6.25412 0.588511 9.25436L0.438477 24.634L0.588511 40.0137C0.618072 43.0139 2.84373 45.5385 5.8166 45.9439L18.3725 47.656C18.3725 47.656 27.1395 48.6451 32.7801 48.9658C38.3994 49.2853 47.1886 49.2982 47.1886 49.2982C47.1886 49.2982 55.8539 49.2804 61.394 48.9658C67.0347 48.6455 70.189 48.302 75.8017 47.656C80.718 47.0903 85.3847 46.3493 88.3576 45.9439C91.3304 45.5385 93.5561 43.0139 93.5856 40.0137L93.7357 24.634L93.5856 9.25436C93.5562 6.2677 91.3505 3.75245 88.3979 3.32982L88.3798 3.32724C88.3604 3.32447 88.3422 3.32188 88.3217 3.31881Z"
        fill="black" />
</svg>