<svg width="94" height="50" viewBox="0 0 94 50" fill="none" xmlns="http://www.w3.org/2000/svg">
<path d="M18.4348 47.1599L18.4342 47.1598L5.88416 45.4485C3.15719 45.0766 1.11563 42.7609 1.08849 40.0088C1.08849 40.0088 1.08849 40.0088 1.08849 40.0088L0.9385 24.634L1.08849 9.25929C1.08849 9.25927 1.08849 9.25925 1.08849 9.25924C1.11563 6.50717 3.15719 4.19146 5.88416 3.8196C6.77484 3.69814 7.81271 3.54732 8.9609 3.38047C11.6656 2.98744 14.9825 2.50544 18.4296 2.10874C21.2282 1.78667 24.824 1.45974 27.7234 1.21311C29.1724 1.08985 30.4462 0.986765 31.3577 0.914492C31.8135 0.878357 32.1786 0.849928 32.4297 0.830538L32.718 0.808398L32.7925 0.802725L32.8043 0.801838L47.1929 0.500021L47.2115 0.5001L47.2849 0.500437L47.5688 0.50196C47.8162 0.503401 48.1759 0.505759 48.6249 0.509429C49.5229 0.516769 50.778 0.529352 52.206 0.550321C55.0637 0.592284 58.6081 0.667754 61.3698 0.801648C66.6259 1.05647 69.7091 1.41231 74.6721 1.98509C75.0199 2.02523 75.3769 2.06643 75.7445 2.10874C80.4546 2.65079 87.6762 3.72782 88.2477 3.81331C88.2701 3.81666 88.2898 3.81946 88.309 3.82221L88.3092 3.82223L88.3093 3.82224L88.327 3.82478C88.3271 3.82478 88.3272 3.8248 88.3272 3.8248C91.0356 4.21253 93.0587 6.51972 93.0857 9.25924L93.2357 24.6292V24.6389L93.0857 40.0088C93.0586 42.7609 91.017 45.0766 88.29 45.4485C87.3993 45.5699 86.3615 45.7207 85.2133 45.8876C82.5086 46.2806 79.1917 46.7626 75.7445 47.1593C70.1352 47.8048 66.992 48.1471 61.3657 48.4666C58.6065 48.6233 55.0637 48.7063 52.2061 48.75C50.7783 48.7719 49.5234 48.7839 48.6255 48.7905C48.1765 48.7938 47.8169 48.7957 47.5696 48.7968L47.2857 48.7979L47.2123 48.7981L47.1938 48.7982L47.1893 48.7982L47.1891 48.7982L47.189 48.7982H47.188H47.1878H47.1877L47.1831 48.7982L47.1642 48.7981L47.0898 48.798L46.8019 48.797C46.5511 48.796 46.1863 48.7943 45.7309 48.7912C44.8201 48.785 43.5473 48.7734 42.099 48.7519C39.2006 48.7087 35.6072 48.6258 32.8085 48.4666C29.9992 48.3069 26.4059 47.9803 23.5104 47.6931C22.0636 47.5496 20.7929 47.4161 19.8838 47.3185C19.4294 47.2696 19.0653 47.2298 18.815 47.2022L18.5278 47.1703L18.4536 47.162L18.4348 47.1599Z" stroke="#232323"/>
</svg>
