<svg width="96" height="48" viewBox="0 0 96 48" fill="none" xmlns="http://www.w3.org/2000/svg">
<path d="M89.2478 45.0982C86.2685 45.4926 81.4289 45.9974 76.502 46.5478C70.8772 47.1761 67.8789 47.3234 62.2261 47.635C56.6739 47.941 48.0892 47.9583 48.0892 47.9583C47.1135 47.9553 39.1568 47.9219 33.9523 47.635C28.2994 47.3234 25.3011 47.1761 19.6763 46.5478C14.7494 45.9974 9.90983 45.4926 6.93054 45.0982C5.31662 44.8845 3.68336 44.1956 2.75041 42.3162C1.96112 40.7261 1.43478 38.4291 1.13836 35.465C0.936857 33.4499 0.735352 31.4349 0.735352 23.9792C0.735352 16.5234 0.936857 14.5084 1.13836 12.4933C1.43478 9.52921 1.96112 7.23217 2.75041 5.64215C3.68336 3.76269 5.31662 3.07376 6.93054 2.86013C9.90983 2.46575 14.7494 1.96094 19.6763 1.41054C25.3011 0.782175 28.2994 0.634917 33.9523 0.32332C39.5044 0.0172754 48.0892 0 48.0892 0C48.0892 0 56.6739 0.0172754 62.2261 0.32332C67.8789 0.634917 70.8772 0.782175 76.502 1.41054C81.4289 1.96094 86.2685 2.46575 89.2478 2.86013C90.8617 3.07376 92.495 3.76269 93.4279 5.64215C94.2172 7.23217 94.7435 9.52921 95.04 12.4933V12.4934C95.2415 14.5084 95.443 16.5235 95.443 23.9792C95.443 31.4349 95.2415 33.4499 95.04 35.465C94.7435 38.4291 94.2172 40.7261 93.4279 42.3162C92.495 44.1956 90.8617 44.8845 89.2478 45.0982Z" fill="black"/>
</svg>
