<svg width="96" height="48" viewBox="0 0 96 48" fill="none" xmlns="http://www.w3.org/2000/svg">
<path d="M48.0841 0.500012L48.0887 0.500002H48.0896L48.0943 0.500012L48.1127 0.500057L48.1854 0.500266L48.4667 0.501335C48.7119 0.502404 49.0684 0.504271 49.5137 0.507468C50.4043 0.513863 51.6495 0.525574 53.0681 0.546837C55.907 0.589392 59.4329 0.670116 62.1985 0.822562C62.4919 0.838732 62.778 0.854457 63.0577 0.869828C68.1685 1.15068 71.1283 1.31333 76.4465 1.90745C77.8191 2.06078 79.1835 2.21044 80.5021 2.35506C83.9237 2.73035 87.0365 3.07177 89.1822 3.3558C90.6976 3.55641 92.1466 4.18552 92.98 5.86446C93.7277 7.37053 94.2458 9.5899 94.5404 12.5228C94.5411 12.5296 94.5418 12.5364 94.5424 12.5432L94.5434 12.5526C94.7426 14.5448 94.943 16.5484 94.943 23.9792C94.943 31.41 94.7426 33.4135 94.5434 35.4057L94.5424 35.4152C94.2481 38.3581 93.7294 40.5843 92.98 42.0938C92.1466 43.7728 90.6976 44.4019 89.1822 44.6025C87.0363 44.8866 83.9231 45.228 80.5011 45.6033C79.1829 45.7479 77.8188 45.8976 76.4465 46.0509C71.1283 46.645 68.1685 46.8076 63.0578 47.0885C62.7781 47.1038 62.4919 47.1196 62.1985 47.1357C59.4329 47.2882 55.907 47.3689 53.0681 47.4115C51.6495 47.4327 50.4043 47.4445 49.5137 47.4509C49.0684 47.454 48.7119 47.4559 48.4667 47.457L48.1854 47.4581L48.1127 47.4583L48.0943 47.4583L48.0896 47.4583L48.089 47.4583C47.1036 47.4553 39.1662 47.4216 33.9798 47.1357C33.6864 47.1196 33.4002 47.1038 33.1205 47.0885C28.0098 46.8076 25.05 46.645 19.7318 46.0509C18.3595 45.8976 16.9954 45.7479 15.6771 45.6033C12.2552 45.228 9.14202 44.8866 6.99615 44.6025C5.48066 44.4019 4.03168 43.7728 3.19826 42.0938C2.44894 40.5843 1.93017 38.3581 1.63588 35.4152L1.63493 35.4057C1.43571 33.4135 1.23535 31.41 1.23535 23.9792C1.23535 16.5483 1.43571 14.5448 1.63493 12.5526L1.63588 12.5431C1.93017 9.60018 2.44894 7.37399 3.19826 5.86446C4.03168 4.18552 5.48066 3.55641 6.99615 3.3558C9.14183 3.07178 12.2546 2.73036 15.6762 2.35507C16.9948 2.21044 18.3592 2.06079 19.7318 1.90745C25.0501 1.31333 28.0099 1.15068 33.1206 0.869828C33.4003 0.854457 33.6864 0.838732 33.9798 0.822562C36.7454 0.670116 40.2713 0.589392 43.1102 0.546837C44.5288 0.525574 45.774 0.513863 46.6646 0.507468C47.1099 0.504271 47.4665 0.502404 47.7116 0.501335L47.993 0.500266L48.0656 0.500057L48.0841 0.500012Z" stroke="#232323"/>
</svg>
