<svg width="56" height="50" viewBox="0 0 56 50" fill="none" xmlns="http://www.w3.org/2000/svg">
<path d="M24.1933 49.1674C22.3546 48.8253 20.2942 48.3967 18.7527 47.9583C9.33113 45.2787 3.57345 40.8596 1.62473 30.6288C0.818707 26.3972 0.500246 22.8391 0.455633 19.143C0.437636 17.6521 0.354408 16.9616 0.455162 15.5698C0.530208 14.5332 0.604457 13.7119 0.818707 12.6948C2.39306 5.2214 8.01416 0 15.4632 0H25.6545C28.4501 0 30.8249 0.0192374 34.0658 0.604517C35.7375 0.906416 36.8384 1.15823 38.2974 1.61204C39.879 2.10399 41.2553 2.66264 42.932 3.42559C46.6116 5.09991 48.9219 6.24324 51.2774 9.06434C55.8662 14.56 57.2403 21.323 54.0162 27.6063C53.4043 28.7988 52.3024 30.894 51.3966 32.4424C50.27 34.368 49.4446 35.6559 48.1118 37.4451C46.2844 39.8981 44.9484 41.5101 42.9334 43.5252C37.3928 49.0658 32.8581 50.7794 24.1933 49.1674Z" fill="black"/>
</svg>
