<svg width="58" height="52" viewBox="0 0 58 52" fill="none" xmlns="http://www.w3.org/2000/svg">
<path d="M25.1933 50.1674C23.3546 49.8253 21.2942 49.3967 19.7527 48.9583C10.3311 46.2787 4.57345 41.8596 2.62473 31.6288C1.81871 27.3972 1.50025 23.8391 1.45563 20.143C1.43764 18.6521 1.35441 17.9616 1.45516 16.5698C1.53021 15.5332 1.60446 14.7119 1.81871 13.6949C3.39306 6.2214 9.01416 1 16.4632 1H26.6545C29.4501 1 31.8249 1.01924 35.0658 1.60452C36.7375 1.90642 37.8384 2.15823 39.2974 2.61204C40.879 3.10399 42.2553 3.66264 43.932 4.42559C47.6116 6.09991 49.9219 7.24324 52.2774 10.0643C56.8662 15.56 58.2403 22.323 55.0162 28.6063C54.4043 29.7988 53.3024 31.894 52.3966 33.4424C51.27 35.368 50.4446 36.6559 49.1118 38.4451C47.2844 40.8981 45.9484 42.5101 43.9334 44.5252C38.3928 50.0658 33.8581 51.7794 25.1933 50.1674Z" stroke="#232323"/>
</svg>
