<svg width="64" height="64" viewBox="0 0 64 64" fill="none" xmlns="http://www.w3.org/2000/svg">
<path d="M63.6446 31.6536C63.6446 31.6536 63.6025 21.4226 63.2442 15.3316C63.0427 11.906 63.0427 10.8985 62.8412 7.8759C62.6203 4.56358 59.8281 1.51269 56.5191 1.24795C56.3736 1.23631 56.2307 1.22184 56.0907 1.20428C52.8968 0.803671 51.2486 0.61153 48.1312 0.40305C41.9287 -0.0117628 38.431 6.98557e-05 32.2123 3.87433e-05C25.9924 7.62481e-06 22.4928 -0.0117628 16.2902 0.40305C13.1729 0.61153 11.5247 0.803671 8.33075 1.20428C8.19081 1.22184 8.04786 1.23631 7.90242 1.24795C4.59332 1.51269 1.80113 4.56358 1.58031 7.8759C1.37881 10.8985 1.37881 11.906 1.1773 15.3316C0.819007 21.4226 0.776855 31.6536 0.776855 31.6536C0.776855 31.6536 0.819007 41.8845 1.1773 47.9755C1.37881 51.4011 1.37881 52.4086 1.58031 55.4312C1.80113 58.7435 4.59332 61.7944 7.90242 62.0592C8.04786 62.0708 8.19081 62.0853 8.33075 62.1028C11.5247 62.5034 13.1729 62.6956 16.2902 62.9041C22.4928 63.3189 25.9924 63.3071 32.2123 63.3071L32.7162 63.3071C38.6242 63.3074 42.0982 63.3075 48.1312 62.9041C51.2486 62.6956 52.8968 62.5034 56.0907 62.1028C56.2307 62.0853 56.3736 62.0708 56.5191 62.0592C59.8281 61.7944 62.6203 58.7435 62.8412 55.4312C63.0427 52.4086 63.0427 51.4011 63.2442 47.9755C63.6025 41.8845 63.6446 31.6536 63.6446 31.6536Z" fill="black"/>
</svg>
