<svg width="64" height="64" viewBox="0 0 64 64" fill="none" xmlns="http://www.w3.org/2000/svg">
<path d="M63.1446 31.6533V31.6538L63.1446 31.6588L63.1445 31.6808L63.1441 31.7673L63.1421 32.1019C63.1403 32.3931 63.1372 32.8161 63.1324 33.3428C63.1229 34.3962 63.1065 35.8641 63.0788 37.5221C63.0235 40.8403 62.9235 44.9119 62.745 47.9461C62.6533 49.5053 62.6035 50.5578 62.5578 51.5221C62.5024 52.6939 62.4531 53.7355 62.3423 55.3979C62.1365 58.4837 59.5208 61.3174 56.4792 61.5608C56.3269 61.5729 56.1764 61.5882 56.0285 61.6067C52.8388 62.0068 51.2013 62.1976 48.0979 62.4052C42.0826 62.8075 38.6226 62.8074 32.7162 62.8071L32.2123 62.8071L31.7149 62.8071C25.8029 62.8074 22.3411 62.8076 16.3236 62.4052C13.2201 62.1976 11.5827 62.0068 8.39298 61.6067C8.24504 61.5882 8.09461 61.5729 7.94229 61.5608C4.90063 61.3174 2.28492 58.4837 2.07921 55.3979C1.96838 53.7355 1.91908 52.6939 1.86362 51.5221C1.81797 50.5578 1.76816 49.5053 1.67644 47.9461C1.49795 44.9119 1.39796 40.8403 1.34265 37.5221C1.31501 35.8641 1.29856 34.3962 1.28902 33.3428C1.28425 32.8161 1.28121 32.3931 1.27936 32.1019L1.27741 31.7673L1.27698 31.6808L1.27688 31.6588L1.27686 31.6538V31.6533L1.27688 31.6483L1.27698 31.6263L1.27741 31.5398L1.27936 31.2052C1.28121 30.914 1.28425 30.491 1.28902 29.9643C1.29856 28.911 1.31501 27.4431 1.34265 25.7851C1.39796 22.4668 1.49795 18.3953 1.67644 15.361C1.76816 13.8018 1.81797 12.7493 1.86362 11.785C1.91908 10.6132 1.96838 9.57159 2.07921 7.90916C2.28492 4.82342 4.90063 1.9897 7.94229 1.74636C8.0946 1.73417 8.24503 1.71895 8.39298 1.7004C11.5827 1.30031 13.2201 1.10949 16.3236 0.901935C22.3411 0.499493 25.803 0.499687 31.7149 0.500019C31.8788 0.500029 32.0446 0.500038 32.2123 0.500039C32.3814 0.50004 32.5484 0.500032 32.7136 0.500024C38.6219 0.499746 42.0817 0.499584 48.0979 0.901935C51.2013 1.10949 52.8388 1.30031 56.0285 1.7004C56.1764 1.71895 56.3269 1.73417 56.4792 1.74636C59.5208 1.9897 62.1365 4.82342 62.3423 7.90916C62.4531 9.57159 62.5024 10.6132 62.5578 11.785C62.6035 12.7493 62.6533 13.8018 62.745 15.361C62.9235 18.3953 63.0235 22.4668 63.0788 25.7851C63.1065 27.4431 63.1229 28.911 63.1324 29.9643C63.1372 30.491 63.1403 30.914 63.1421 31.2052L63.1441 31.5398L63.1445 31.6263L63.1446 31.6483L63.1446 31.6516L63.1446 31.6533Z" stroke="#232323"/>
</svg>
